<?xml version="1.0" encoding="utf-8"?>
<!-- Generator: Adobe Illustrator 17.0.0, SVG Export Plug-In . SVG Version: 6.00 Build 0)  -->
<!DOCTYPE svg PUBLIC "-//W3C//DTD SVG 1.1//EN" "http://www.w3.org/Graphics/SVG/1.1/DTD/svg11.dtd">
<svg version="1.1" id="Layer_1" xmlns="http://www.w3.org/2000/svg" xmlns:xlink="http://www.w3.org/1999/xlink" x="0px" y="0px"
	 width="88.688px" height="139.812px" viewBox="0 0 88.688 139.812" enable-background="new 0 0 88.688 139.812"
	 xml:space="preserve">
<g>
	<g>
		<path fill="#474747" d="M43.175,109.973l29.422-43.705c0.484-0.719,1.009-1.464,1.558-2.279c0.534-0.793,1.024-1.583,1.452-2.323
			c0.458-0.752,0.792-1.382,1.01-1.911c0.515-1.249,0.786-2.449,0.824-3.622c0.038-1.173-0.181-2.204-0.657-3.092
			c-0.467-0.911-1.212-1.564-2.219-2.004c-1.3-0.51-2.82-0.666-4.603-0.485c-1.783,0.181-3.653,0.575-5.661,1.183
			c-1.996,0.638-3.966,1.336-5.918,2.166c-1.942,0.809-3.753,1.598-5.389,2.385c-1.648,0.757-3.019,1.38-4.082,1.858l0.949,2.025
			c1.195-0.498,2.489-1.054,3.935-1.622c1.426-0.576,2.834-1.11,4.267-1.584c1.412-0.483,2.69-0.822,3.857-1.01
			c1.154-0.218,2.059-0.191,2.724,0.058c0.309,0.152,0.488,0.498,0.525,1.009c0.037,0.51-0.019,1.007-0.22,1.494
			c-0.218,0.529-0.534,1.116-0.915,1.801c-0.402,0.676-0.817,1.322-1.214,1.926L42.154,92.938c-0.833,1.241-1.645,2.491-2.444,3.771
			C39.475,97.084,40.014,114.668,43.175,109.973"/>
	</g>
	<g>
		<path fill="#474747" d="M57.206,23.103c2.149,0.056,4.086-0.359,5.813-1.281c1.726-0.921,3.138-2.22,4.2-3.864
			c1.061-1.644,1.637-3.54,1.759-5.687c0.056-2.149-0.359-4.086-1.281-5.813c-0.921-1.726-2.219-3.137-3.864-4.199
			c-1.644-1.061-3.54-1.637-5.686-1.76c-2.083-0.054-3.988,0.364-5.714,1.285c-1.759,0.919-3.171,2.218-4.265,3.86
			c-1.061,1.644-1.67,3.539-1.793,5.686c-0.056,2.149,0.393,4.088,1.314,5.814c0.954,1.728,2.253,3.139,3.93,4.202
			C53.262,22.409,55.125,22.983,57.206,23.103 M61.883,111.086c-1.377,1.267-2.857,2.629-4.509,4.149
			c-1.651,1.487-3.332,2.906-5.01,4.26c-1.677,1.32-3.247,2.447-4.672,3.281c-1.459,0.866-2.668,1.279-3.628,1.273
			c-0.693-0.062-1.206-0.448-1.576-1.125c-0.336-0.676-0.504-1.411-0.474-2.138c0.035-0.826,0.174-1.78,0.353-2.898
			c0.212-1.117,0.456-2.199,0.696-3.215L55.95,62.774c0.315-1.212,0.633-2.489,0.989-3.865c0.32-1.344,0.607-2.656,0.823-3.872
			c0.251-1.247,0.393-2.267,0.427-3.094c0.081-1.95-0.143-3.713-0.672-5.324c-0.529-1.611-1.336-2.902-2.421-3.874
			c-1.084-1.005-2.419-1.525-4.004-1.624c-2.017-0.051-4.158,0.489-6.489,1.617c-2.331,1.127-4.676,2.585-7.102,4.404
			c-2.394,1.853-4.725,3.776-6.964,5.867c-2.237,2.058-4.305,4.025-6.138,5.901c-1.864,1.842-3.417,3.367-4.625,4.541l2.288,2.28
			c1.377-1.267,2.858-2.662,4.542-4.148c1.651-1.487,3.299-2.908,5.011-4.26c1.678-1.353,3.246-2.446,4.738-3.278
			c1.459-0.866,2.701-1.278,3.727-1.268c0.495,0.054,0.909,0.435,1.212,1.109c0.303,0.675,0.472,1.377,0.441,2.138
			c-0.034,0.826-0.174,1.78-0.352,2.898c-0.212,1.116-0.456,2.199-0.697,3.215l-12.887,51.898c-0.518,2.097-1.003,4.196-1.455,6.328
			c-0.452,2.1-0.732,4.074-0.841,5.89c-0.07,1.685,0.197,3.219,0.768,4.6c0.57,1.414,1.417,2.542,2.572,3.417
			c1.155,0.876,2.56,1.331,4.211,1.433c2.017,0.05,4.158-0.489,6.489-1.617c2.331-1.128,4.676-2.586,7.104-4.438
			c2.392-1.82,4.725-3.776,6.962-5.834c2.237-2.059,4.306-4.025,6.139-5.901c1.864-1.843,3.417-3.367,4.625-4.541L61.883,111.086z"
			/>
	</g>
	<g>
		<path fill="#474747" d="M55.054,93.8l27.843-20.152c0.447-0.323,0.925-0.654,1.432-1.021c0.493-0.357,0.959-0.722,1.378-1.07
			c0.439-0.349,0.777-0.652,1.023-0.921c0.582-0.634,1.007-1.292,1.288-1.985c0.28-0.693,0.375-1.358,0.286-1.994
			c-0.079-0.647-0.382-1.202-0.888-1.686c-0.665-0.591-1.54-1.018-2.646-1.3c-1.106-0.283-2.311-0.458-3.645-0.535
			c-1.333-0.056-2.665-0.071-4.014-0.003c-1.339,0.058-2.595,0.132-3.746,0.243c-1.152,0.091-2.109,0.163-2.849,0.215l0.123,1.419
			c0.824-0.035,1.72-0.084,2.71-0.106c0.979-0.031,1.938-0.042,2.899-0.011c0.95,0.021,1.789,0.099,2.528,0.243
			c0.738,0.123,1.274,0.337,1.616,0.632c0.151,0.159,0.183,0.405,0.093,0.719c-0.09,0.313-0.232,0.598-0.459,0.845
			c-0.247,0.269-0.565,0.551-0.943,0.876c-0.389,0.316-0.779,0.611-1.149,0.885L58.837,82.915c-0.77,0.559-1.53,1.128-2.289,1.718
			c-0.749,0.579-1.413,1.157-1.958,1.745c-1.116,1.203-6.97,10.756-2.796,9.331C52.536,95.457,53.595,94.856,55.054,93.8"/>
	</g>
	<g>
		<path fill="#474747" d="M10.086,139.516c-4.043,0-6.358-1.541-7.638-2.968c-1.925-2.144-2.557-5.253-1.735-8.529L15.05,73.037
			c1.922-6.8,3.127-8.656,8.605-13.277l2.193,2.601c-5.001,4.218-5.774,5.408-7.516,11.568L4.008,128.861
			c-0.539,2.146-0.186,4.126,0.971,5.414c1.382,1.539,3.924,2.14,7.152,1.69l22.199-3.553l0.537,3.359l-22.233,3.558
			C11.717,139.457,10.869,139.516,10.086,139.516z"/>
	</g>
</g>
</svg>
