<?xml version="1.0" encoding="utf-8"?>
<!-- Generator: Adobe Illustrator 17.0.0, SVG Export Plug-In . SVG Version: 6.00 Build 0)  -->
<!DOCTYPE svg PUBLIC "-//W3C//DTD SVG 1.1//EN" "http://www.w3.org/Graphics/SVG/1.1/DTD/svg11.dtd">
<svg version="1.1" id="Layer_1" xmlns="http://www.w3.org/2000/svg" xmlns:xlink="http://www.w3.org/1999/xlink" x="0px" y="0px"
	 width="58.015px" height="58.015px" viewBox="0 0 58.015 58.015" enable-background="new 0 0 58.015 58.015" xml:space="preserve">
<circle fill="none" stroke="#474747" stroke-width="0.5" stroke-miterlimit="10" cx="29.008" cy="29.008" r="28.758"/>
<path fill="#474747" d="M36.88,21.784L29.501,9.091l-7.303,12.736v21.349l1.541,3.018l1.156-2.004l1.167,1.997l1.155-2.005
	l1.169,1.995l1.156-2.004l1.17,1.996l1.158-2.004l1.17,1.996l1.159-2.005l1.174,1.995l1.522-3.001l-0.012-0.002V21.917L36.88,21.784
	z M34.188,42.171l-1.157,2.002l-1.17-1.996l-1.158,2.004l-1.17-1.997l-1.156,2.004l-1.171-1.997l-1.153,2.003l-1.165-1.996
	L23.735,44.2l-0.537-1.215l0.001-20.893l6.309-11.001l6.372,10.964v20.979l-0.516,1.135L34.188,42.171z"/>
<line fill="none" stroke="#474747" stroke-miterlimit="10" x1="25.162" y1="27.174" x2="33.723" y2="27.174"/>
<line fill="none" stroke="#474747" stroke-miterlimit="10" x1="25.162" y1="31.008" x2="33.723" y2="31.008"/>
<line fill="none" stroke="#474747" stroke-miterlimit="10" x1="25.162" y1="34.841" x2="33.723" y2="34.841"/>
</svg>
