<?xml version="1.0" encoding="utf-8"?>
<!-- Generator: Adobe Illustrator 17.0.0, SVG Export Plug-In . SVG Version: 6.00 Build 0)  -->
<!DOCTYPE svg PUBLIC "-//W3C//DTD SVG 1.1//EN" "http://www.w3.org/Graphics/SVG/1.1/DTD/svg11.dtd">
<svg version="1.1" id="Layer_1" xmlns="http://www.w3.org/2000/svg" xmlns:xlink="http://www.w3.org/1999/xlink" x="0px" y="0px"
	 width="60.235px" height="65.674px" viewBox="0 0 60.235 65.674" enable-background="new 0 0 60.235 65.674" xml:space="preserve">
<path fill="none" stroke="#474747" stroke-width="0.5" stroke-miterlimit="10" d="M57.157,30.754
	c0.399,1.908,0.608,3.886,0.608,5.912c0,15.882-12.875,28.758-28.758,28.758S0.25,52.549,0.25,36.667
	c0-15.052,11.565-27.404,26.294-28.653"/>
<g>
	<circle fill="#474747" cx="31.526" cy="42.248" r="0.662"/>
	<circle fill="#474747" cx="30.202" cy="42.453" r="0.662"/>
	<path fill="#474747" d="M29.397,41.747c-0.242-0.274-0.661-0.299-0.935-0.057c-0.029,0.026-0.044,0.06-0.067,0.089
		c0.095-0.227,0.065-0.497-0.11-0.694c-0.242-0.274-0.661-0.299-0.935-0.057c-0.274,0.242-0.299,0.661-0.057,0.935
		c0.242,0.274,0.661,0.299,0.935,0.057c0.029-0.026,0.044-0.06,0.067-0.089c-0.095,0.227-0.065,0.497,0.11,0.694
		c0.242,0.274,0.661,0.299,0.935,0.057C29.614,42.439,29.639,42.021,29.397,41.747z"/>
	<circle fill="#474747" cx="27.577" cy="40.2" r="0.662"/>
	<circle fill="#474747" cx="28.002" cy="38.921" r="0.662"/>
	<circle fill="#474747" cx="28.239" cy="37.596" r="0.662"/>
	<circle fill="#474747" cx="29.008" cy="36.504" r="0.662"/>
	<path fill="#474747" d="M32.887,39.998c-0.274,0.242-0.299,0.661-0.057,0.935c0.015,0.016,0.035,0.023,0.05,0.038
		c-0.219-0.077-0.47-0.045-0.656,0.12c-0.274,0.242-0.299,0.661-0.057,0.935c0.242,0.274,0.661,0.299,0.935,0.057
		c0.274-0.242,0.299-0.661,0.057-0.935c-0.015-0.016-0.035-0.023-0.05-0.038c0.219,0.077,0.47,0.045,0.656-0.12
		c0.274-0.242,0.299-0.661,0.057-0.935S33.16,39.756,32.887,39.998z"/>
	<circle fill="#474747" cx="34.129" cy="39.457" r="0.662"/>
	<path fill="#474747" d="M35.387,36.973c-0.269,0.239-0.295,0.646-0.065,0.92c-0.247-0.232-0.629-0.25-0.888-0.021
		c-0.274,0.242-0.299,0.661-0.057,0.935c0.242,0.274,0.661,0.299,0.935,0.057c0.269-0.239,0.295-0.646,0.065-0.92
		c0.247,0.232,0.629,0.25,0.888,0.021c0.274-0.242,0.299-0.661,0.057-0.935C36.079,36.756,35.661,36.731,35.387,36.973z"/>
	<path fill="#474747" d="M52.548,5.684L41.671,0L25.354,5.138l9.719,30.896c0.243-0.133,0.505-0.227,0.786-0.227
		c0.067,0,0.132,0.013,0.198,0.021L26.608,5.792l14.411-4.533l2.605,8.281l8.27-2.602l7.087,22.529l-21.893,6.887
		c0.005,0.005,0.01,0.009,0.015,0.014c0.232,0.262,0.365,0.579,0.404,0.903l22.728-7.15L52.548,5.684z M42.056,1.223l9.271,4.844
		l-7.049,2.218L42.056,1.223z"/>
</g>
<path fill="none" stroke="#FFFFFF" stroke-miterlimit="10" d="M36.927,38.131"/>
</svg>
