<?xml version="1.0" encoding="utf-8"?>
<!-- Generator: Adobe Illustrator 17.0.0, SVG Export Plug-In . SVG Version: 6.00 Build 0)  -->
<!DOCTYPE svg PUBLIC "-//W3C//DTD SVG 1.1//EN" "http://www.w3.org/Graphics/SVG/1.1/DTD/svg11.dtd">
<svg version="1.1" id="Layer_1" xmlns="http://www.w3.org/2000/svg" xmlns:xlink="http://www.w3.org/1999/xlink" x="0px" y="0px"
	 width="58.015px" height="58.015px" viewBox="0 0 58.015 58.015" enable-background="new 0 0 58.015 58.015" xml:space="preserve">
<circle fill="none" stroke="#474747" stroke-width="0.5" stroke-miterlimit="10" cx="29.008" cy="29.008" r="28.758"/>
<g>
	<path fill="#474747" d="M29.12,45.466c-9.075,0-16.458-7.384-16.458-16.459s7.383-16.458,16.458-16.458
		c3.568,0,6.964,1.123,9.819,3.248l0.4,0.299l-9.393,12.636l15.092,4.5l-0.143,0.479C42.836,40.632,36.348,45.466,29.12,45.466z
		 M29.12,13.549c-8.523,0-15.458,6.935-15.458,15.458c0,8.524,6.935,15.459,15.458,15.459c6.623,0,12.582-4.319,14.667-10.564
		l-15.494-4.619l9.644-12.975C35.342,14.501,32.304,13.549,29.12,13.549z"/>
</g>
<g>
	<path fill="#474747" d="M46.945,24.79c-0.749-3.335-2.404-6.327-4.696-8.708c-0.228-0.237-0.465-0.463-0.706-0.687l-0.596,0.807
		l-8.49,11.497l13.683-1.784l0.991-0.129 M34.651,26.4l6.994-9.498c2.085,2.21,3.597,4.959,4.302,8.019L34.651,26.4z"/>
</g>
<g>
	<path fill="#474747" d="M47.352,27.978c-0.017-0.297-0.019-0.597-0.049-0.89l-0.992,0.119l-12.114,1.447l11.909,3.493l0.967,0.284
		c0.07-0.37,0.124-0.745,0.172-1.122c0.095-0.755,0.16-1.519,0.16-2.299C47.404,28.66,47.371,28.321,47.352,27.978z M39.237,29.059
		l7.121-0.949c0.015,0.299,0.045,0.595,0.045,0.898c0,0.687-0.051,1.361-0.128,2.027L39.237,29.059z"/>
</g>
</svg>
