<?xml version="1.0" encoding="utf-8"?>
<!-- Generator: Adobe Illustrator 17.0.0, SVG Export Plug-In . SVG Version: 6.00 Build 0)  -->
<!DOCTYPE svg PUBLIC "-//W3C//DTD SVG 1.1//EN" "http://www.w3.org/Graphics/SVG/1.1/DTD/svg11.dtd">
<svg version="1.1" id="Layer_1" xmlns="http://www.w3.org/2000/svg" xmlns:xlink="http://www.w3.org/1999/xlink" x="0px" y="0px"
	 width="58.015px" height="58.015px" viewBox="0 0 58.015 58.015" enable-background="new 0 0 58.015 58.015" xml:space="preserve">
<circle fill="none" stroke="#474747" stroke-width="0.5" stroke-miterlimit="10" cx="29.008" cy="29.008" r="28.758"/>
<path fill="#474747" d="M47.996,28.63l-17.18-0.111l14.928-8.836l-0.51-0.861l-14.88,8.807l8.617-15.376l-0.873-0.488l-8.59,15.327
	V9.356h-1v17.635l-8.172-15.457l-0.885,0.467l8.244,15.593l-14.663-9.189l-0.531,0.848l14.711,9.219L10.036,28.14l-0.02,1
	l17.18,0.332l-15.034,8.643l0.498,0.867l14.987-8.616l-8.803,15.265l0.867,0.5l8.775-15.216l-0.214,17.736l1,0.012l0.214-17.734
	l8.404,15.438l0.879-0.479l-8.431-15.487l14.773,9l0.52-0.854l-14.821-9.029L47.99,29.63L47.996,28.63z M29.008,30.133
	c-0.621,0-1.125-0.504-1.125-1.125c0-0.621,0.504-1.125,1.125-1.125c0.621,0,1.125,0.504,1.125,1.125
	C30.133,29.629,29.629,30.133,29.008,30.133z"/>
</svg>
