<?xml version="1.0" encoding="utf-8"?>
<!-- Generator: Adobe Illustrator 17.0.0, SVG Export Plug-In . SVG Version: 6.00 Build 0)  -->
<!DOCTYPE svg PUBLIC "-//W3C//DTD SVG 1.1//EN" "http://www.w3.org/Graphics/SVG/1.1/DTD/svg11.dtd">
<svg version="1.1" id="Layer_1" xmlns="http://www.w3.org/2000/svg" xmlns:xlink="http://www.w3.org/1999/xlink" x="0px" y="0px"
	 width="58.015px" height="58.015px" viewBox="0 0 58.015 58.015" enable-background="new 0 0 58.015 58.015" xml:space="preserve">
<circle fill="none" stroke="#474747" stroke-width="0.5" stroke-miterlimit="10" cx="29.008" cy="29.008" r="28.758"/>
<g>
	<g>
		<polygon fill="#474747" points="41.054,33.449 41.02,33.449 39.184,33.449 37.587,33.449 37.077,33.449 37.077,33.959 
			37.077,34.809 37.825,34.809 41.417,34.809 41.994,34.435 42.969,33.8 50.3,29.008 42.878,24.169 41.915,23.535 41.417,23.206 
			37.961,23.206 37.077,23.206 37.077,23.92 37.077,24.487 37.643,24.487 39.241,24.487 40.623,24.487 40.827,24.611 41.824,25.223 
			47.864,28.883 41.994,32.826 		"/>
		<polygon fill="#474747" points="34.811,37.823 34.811,37.075 33.95,37.075 33.485,37.075 33.485,37.539 33.485,39.148 
			33.485,40.735 33.485,40.95 32.964,41.811 29.1,48.19 25.225,42.423 24.579,41.471 24.523,41.38 24.523,39.126 24.523,37.528 
			24.523,37.075 24.07,37.075 23.197,37.075 23.197,37.8 23.197,41.414 23.764,42.276 24.398,43.25 29.01,50.297 33.927,42.774 
			34.55,41.811 34.811,41.414 		"/>
		<path fill="#474747" d="M27.729,29.008c0,0.702,0.578,1.28,1.28,1.28c0.702,0,1.269-0.578,1.269-1.28
			c0-0.702-0.567-1.269-1.269-1.269C28.307,27.739,27.729,28.305,27.729,29.008z"/>
		<polygon fill="#474747" points="24.523,20.94 24.523,20.34 24.523,18.742 24.523,17.541 24.523,17.054 24.942,16.363 
			28.919,9.814 33.055,15.977 33.485,16.623 33.485,17.144 33.485,18.731 33.485,20.34 33.485,20.94 34.086,20.94 34.811,20.94 
			34.811,20.056 34.811,16.601 34.505,16.125 33.87,15.162 29.01,7.718 23.979,15.4 23.344,16.374 23.197,16.601 23.197,20.068 
			23.197,20.94 23.922,20.94 		"/>
		<polygon fill="#474747" points="16.489,34.741 16.603,34.809 20.206,34.809 20.931,34.809 20.931,33.925 20.931,33.449 
			20.455,33.449 18.846,33.449 17.781,33.449 17.181,33.449 16.557,33.075 9.94,29.053 15.73,25.166 16.693,24.532 16.75,24.487 
			18.778,24.487 20.387,24.487 20.931,24.487 20.931,23.943 20.931,23.206 20.059,23.206 16.603,23.206 15.855,23.694 
			14.892,24.328 7.72,29.008 15.526,34.106 		"/>
	</g>
</g>
</svg>
