<svg xmlns="http://www.w3.org/2000/svg" viewBox="0 0 399.16 430.97"><defs><style>.cls-1{fill:#00a4ff;}.cls-2{fill:#001eff;}.cls-3{fill:#fff;}</style></defs><title>Asset 7</title><g id="Layer_2" data-name="Layer 2"><g id="Capa_1" data-name="Capa 1"><path class="cls-1" d="M101.84,95.8c-42,42.59-57.17,104.66-37,165.57a128.26,128.26,0,0,0,14.61,30.17c62.32,94.66,191.41,103.59,266.45,27.56,71.67-72.61,70.9-190-1.71-261.66A199.75,199.75,0,0,0,62,59.27a215.13,215.13,0,0,0,2,304.25c89.5,88.34,235.08,90.71,323.48,2.31l-37.25-34.48c-79.71,76-211.87,66.29-278.22-29.76a148.29,148.29,0,0,1-20.13-42.07C33,196,49.64,131.91,93.45,87.52c29.86-30.25,69.14-47.35,111.66-47.35,61.72,0,157.5,45.36,157.5,151.48,0,93.78-79.25,146.68-140.22,145.32-46.48-1-90.08-22.51-116.91-62.77a106,106,0,0,1-12.61-26.12c-15.89-49.09-3.57-99,30.3-133.31a120.4,120.4,0,0,1,165.59-5.29l17.39-19a147.38,147.38,0,0,0-204.3,5.27Z"/><path class="cls-2" d="M284,121.52c-10.43-9.67-37.54-30.76-75.8-30.76-50.26,0-110.45,40-110.45,117.17,0,63.73,57.29,117.17,124,117.17a126.45,126.45,0,0,0,89.65-37.38c52.27-52.27,51.87-135.78,2.55-189L293.5,121.11A6.67,6.67,0,0,1,284,121.52Z"/><path class="cls-3" d="M169.23,189.28A21.78,21.78,0,1,0,191,211.06,21.8,21.8,0,0,0,169.23,189.28Z"/><path class="cls-1" d="M233.82,166,189.38,192a27.79,27.79,0,0,1,6.41,11l44.55-26A28,28,0,0,1,233.82,166Z"/><path class="cls-3" d="M260.46,179.54a21.95,21.95,0,1,0-21.95-21.95A22,22,0,0,0,260.46,179.54Z"/><path class="cls-3" d="M260,284.65a21.45,21.45,0,1,0-21.45-21.45A21.47,21.47,0,0,0,260,284.65Z"/><path class="cls-1" d="M240.71,243.66l-44.52-25.9a27.72,27.72,0,0,1-5.84,11.32l43.58,25.45A27.5,27.5,0,0,1,240.71,243.66Z"/></g></g></svg>