<svg xmlns="http://www.w3.org/2000/svg" xmlns:xlink="http://www.w3.org/1999/xlink" viewBox="0 0 399.16 430.97"><defs><style>.cls-1{fill:none;}.cls-2{fill:#00a4ff;}.cls-3{fill:#001eff;}.cls-4{clip-path:url(#clip-path);}.cls-5{fill:#fff;}</style><clipPath id="clip-path"><path class="cls-1" d="M278.61,129.39c-9.48-8.79-34.12-28-68.9-28-45.68,0-100.39,36.32-100.39,106.51,0,57.93,52.07,104.51,112.73,104.51,30.71,0,59.77-10.26,81.49-32C351,233,350.67,157,305.84,108.7L287.2,129A6.06,6.06,0,0,1,278.61,129.39Z"/></clipPath></defs><title>Asset 6</title><g id="Layer_2" data-name="Layer 2"><g id="Capa_1" data-name="Capa 1"><path class="cls-2" d="M101.84,95.8c-42,42.59-57.17,104.66-37,165.57a128.26,128.26,0,0,0,14.61,30.17c62.32,94.66,191.41,103.59,266.45,27.56,71.67-72.61,70.9-190-1.71-261.66A199.75,199.75,0,0,0,62,59.27a215.13,215.13,0,0,0,2,304.25c89.5,88.34,235.08,90.71,323.48,2.31l-37.25-34.48c-79.71,76-211.87,66.29-278.22-29.76a148.29,148.29,0,0,1-20.13-42.07C33,196,49.64,131.91,93.45,87.52c29.86-30.25,69.14-47.35,111.66-47.35,61.72,0,157.5,45.36,157.5,151.48,0,93.78-79.25,146.68-140.22,145.32-46.48-1-90.08-22.51-116.91-62.77a106,106,0,0,1-12.61-26.12c-15.89-49.09-3.57-99,30.3-133.31a120.4,120.4,0,0,1,165.59-5.29l17.39-19a147.38,147.38,0,0,0-204.3,5.27Z"/><path class="cls-3" d="M284,121.52c-10.43-9.67-37.54-30.76-75.8-30.76-50.26,0-110.45,40-110.45,117.17,0,63.73,57.29,117.17,124,117.17a126.45,126.45,0,0,0,89.65-37.38c52.27-52.27,51.87-135.78,2.55-189L293.5,121.11A6.67,6.67,0,0,1,284,121.52Z"/><g class="cls-4"><rect class="cls-5" x="132.26" y="182.93" width="176.37" height="215.05"/><path class="cls-2" d="M132.22,163.38h54a13.39,13.39,0,0,1,13.39,13.39v0a0,0,0,0,1,0,0H132.22a0,0,0,0,1,0,0V163.38A0,0,0,0,1,132.22,163.38Z"/></g><rect class="cls-2" x="200.31" y="224.96" width="40.8" height="17.58" transform="translate(454.46 13.04) rotate(90)"/><polygon class="cls-2" points="220.4 282.73 207.73 260.77 195.05 238.81 220.4 238.81 245.76 238.81 233.08 260.77 220.4 282.73"/></g></g></svg>