<?xml version="1.0" encoding="UTF-8" standalone="no"?>
<!-- Creator: CorelDRAW -->

<svg
   xmlns:dc="http://purl.org/dc/elements/1.1/"
   xmlns:cc="http://creativecommons.org/ns#"
   xmlns:rdf="http://www.w3.org/1999/02/22-rdf-syntax-ns#"
   xmlns:svg="http://www.w3.org/2000/svg"
   xmlns="http://www.w3.org/2000/svg"
   xmlns:sodipodi="http://sodipodi.sourceforge.net/DTD/sodipodi-0.dtd"
   xmlns:inkscape="http://www.inkscape.org/namespaces/inkscape"
   xml:space="preserve"
   width="220.9mm"
   height="235.4mm"
   style="shape-rendering:geometricPrecision; text-rendering:geometricPrecision; image-rendering:optimizeQuality; fill-rule:evenodd; clip-rule:evenodd"
   viewBox="0 0 220.9 235.4"
   id="svg3392"
   version="1.1"
   inkscape:version="0.91 r"
   sodipodi:docname="Muestra.svg"><metadata
     id="metadata3408"><rdf:RDF><cc:Work
         rdf:about=""><dc:format>image/svg+xml</dc:format><dc:type
           rdf:resource="http://purl.org/dc/dcmitype/StillImage" /><dc:title></dc:title></cc:Work></rdf:RDF></metadata><sodipodi:namedview
     pagecolor="#ffffff"
     bordercolor="#666666"
     borderopacity="1"
     objecttolerance="10"
     gridtolerance="10"
     guidetolerance="10"
     inkscape:pageopacity="0"
     inkscape:pageshadow="2"
     inkscape:window-width="1366"
     inkscape:window-height="741"
     id="namedview3406"
     showgrid="false"
     inkscape:zoom="0.67138678"
     inkscape:cx="173.15319"
     inkscape:cy="417.04723"
     inkscape:window-x="0"
     inkscape:window-y="0"
     inkscape:window-maximized="1"
     inkscape:current-layer="svg3392" /><defs
     id="defs3394"><style
       type="text/css"
       id="style3396"><![CDATA[
    .fil0 {fill:#0091D2}
    .fil1 {fill:#2A1F74}
    .fil2 {fill:white}
   ]]></style></defs><g
     id="Layer_x0020_1"><metadata
       id="CorelCorpID_0Corel-Layer" /><g
       id="Layer_2"
       data-name="Layer 2"><g
         id="Capa_1"
         data-name="Capa 1"><path
           id="_170641048"
           class="fil0"
           d="M57.0635 52.3269c-22.9408,23.2631 -31.2268,57.1663 -20.2098,90.4359 1.645,5.6071 4.6553,11.6277 7.9392,16.5535 34.0398,51.7042 104.55,56.5819 145.538,15.0535 39.1469,-39.6603 38.7263,-103.78 -0.934,-142.921 -19.8422,-19.9451 -47.971,-31.4523 -76.5259,-31.4523 -28.5546,0 -56.2572,11.5072 -76.2882,31.1121 -22.7635,22.7635 -35.1567,53.0581 -35.1567,83.8116 0,31.2123 12.8522,61.9658 34.8846,83.5392 48.8858,48.2522 128.403,49.5467 176.688,1.2617l-20.3463 -18.8333c-43.5384,41.5119 -115.726,36.2082 -151.967,-16.2552 -4.4468,-6.683 -8.56,-15.2257 -10.7747,-22.8192 -10.4483,-34.7561 -1.3594,-69.7627 22.5701,-94.0089 16.3098,-16.5228 37.7649,-25.863 60.9898,-25.863 33.7121,0 86.028,24.7761 86.028,82.7398 0,51.2235 -43.2871,80.118 -76.5895,79.3752 -25.3878,-0.5462 -49.2026,-12.2952 -63.8574,-34.2856 -2.681,-4.0244 -5.1688,-9 -6.752,-13.5233 -8.6793,-26.8134 -1.95,-54.0748 16.5502,-72.8152 11.9317,-13.059 29.1432,-20.2519 46.6114,-20.2519 15.6702,0 31.0836,5.9084 42.9005,15.9271l9.4986 -10.378c-13.5647,-12.5176 -33.6898,-20.379 -53.5004,-20.379 -21.0682,0 -41.8222,8.4903 -56.6015,23.2696l-0.695 0.7069z" /><path
           id="_170640616"
           class="fil1"
           d="M156.561 66.3754c-5.697,-5.2818 -20.5047,-16.8014 -41.4027,-16.8014 -27.4525,0 -60.3289,21.8484 -60.3289,63.9994 0,34.8099 31.2924,63.9994 67.73,63.9994 18.0185,-0.0002 36.095,-7.5545 48.7755,-20.235 28.5504,-28.5504 28.3319,-74.1644 1.3928,-103.234l-10.9777 12.0473c-0.684,0.7612 -1.6801,1.2024 -2.7048,1.2024 -0.8966,0 -1.7931,-0.3416 -2.4478,-0.9393l-0.0364 -0.0392z" /><polygon
           id="_170640880"
           class="fil0"
           points="88.6235,147.881 111.679,104.779 127.568,118.342 " /><polygon
           id="_169811608"
           class="fil2"
           points="113.864,102.048 152.803,72.5093 129.753,115.611 " /></g></g></g><path
     style="fill:#a0a0a0;stroke:none;stroke-width:1px;stroke-linecap:butt;stroke-linejoin:miter;stroke-opacity:1"
     d="m 431.8949,384.841 -27.32502,-23.32697 3.59695,-2.66089 c 1.97833,-1.46349 31.74764,-24.07273 66.15404,-50.24276 34.40639,-26.17003 62.79183,-47.37541 63.07875,-47.12308 0.50425,0.44348 -75.23768,143.21849 -77.20603,145.53485 -0.53552,0.6302 -13.26993,-9.35132 -28.29869,-22.18115 z"
     id="path3410"
     inkscape:connector-curvature="0"
     transform="scale(0.28222222,0.28222222)" /><path
     style="fill:#a0a0a0;stroke:none;stroke-width:1px;stroke-linecap:butt;stroke-linejoin:miter;stroke-opacity:1"
     d="m 318.41168,517.21304 c 2.81521,-5.50459 76.72876,-144.13202 77.11299,-144.62809 0.22296,-0.28785 12.82945,10.06462 28.01444,23.00551 15.18498,12.94088 27.46088,23.66716 27.27977,23.83619 -2.11051,1.96972 -132.55568,100.39294 -133.05573,100.39294 -0.37649,0 -0.0847,-1.17295 0.64853,-2.60655 z"
     id="path3412"
     inkscape:connector-curvature="0"
     transform="scale(0.28222222,0.28222222)" /><path
     style="fill:#0000ff"
     d="m 449.00014,398.10397 c -15.15264,-12.15653 -41.63261,-34.8971 -42.14218,-36.19102 -0.52643,-1.33674 124.67796,-96.79007 126.95775,-96.79007 0.59732,0 -4.76141,11.22677 -11.9083,24.94837 -18.55513,35.62473 -60.4355,114.12311 -61.54487,115.35648 -0.51492,0.57248 -5.628,-2.72322 -11.3624,-7.32376 z"
     id="path3422"
     inkscape:connector-curvature="0"
     transform="scale(0.28222222,0.28222222)" /><path
     style="fill:#2a1f74;fill-opacity:1"
     d="m 320.16234,516.08722 c 0,-1.64145 75.08383,-142.21432 75.96631,-142.22506 0.86239,-0.0105 45.18666,37.21142 50.34892,42.2812 l 3.43524,3.37369 -63.01342,47.41401 c -34.65738,26.0777 -63.85124,48.05759 -64.87524,48.84419 -1.024,0.7866 -1.86181,0.92699 -1.86181,0.31197 z"
     id="path3424"
     inkscape:connector-curvature="0"
     transform="scale(0.28222222,0.28222222)" /><path
     style="fill:#2a1f74;fill-opacity:1"
     d="m 454.04672,401.04099 c -10.05599,-7.69714 -32.08323,-26.26494 -38.93522,-32.82033 l -6.92951,-6.62957 4.69533,-4.03817 c 16.03276,-13.78881 117.17633,-89.92042 118.15814,-88.93862 0.36941,0.36941 -1.72457,5.42991 -4.65328,11.24556 -8.59252,17.06245 -65.00308,122.93763 -66.1196,124.09775 -0.56119,0.5831 -3.35833,-0.72938 -6.21586,-2.91662 z"
     id="path4238"
     inkscape:connector-curvature="0"
     transform="scale(0.28222222,0.28222222)" /><rect
     style="fill:#2a1f74;fill-opacity:1"
     id="rect4242"
     width="74.82357"
     height="91.637848"
     x="78.606789"
     y="63.894283" /><rect
     y="63.894283"
     x="78.606789"
     height="91.637848"
     width="74.82357"
     id="rect4244"
     style="fill:#2a1f74;fill-opacity:1" /></svg>