<?xml version="1.0" encoding="UTF-8"?>
<!DOCTYPE svg PUBLIC "-//W3C//DTD SVG 1.1//EN" "http://www.w3.org/Graphics/SVG/1.1/DTD/svg11.dtd">
<!-- Creator: CorelDRAW -->
<svg xmlns="http://www.w3.org/2000/svg" xml:space="preserve" width="220.9mm" height="235.4mm" style="shape-rendering:geometricPrecision; text-rendering:geometricPrecision; image-rendering:optimizeQuality; fill-rule:evenodd; clip-rule:evenodd"
viewBox="0 0 220.9 235.4"
 xmlns:xlink="http://www.w3.org/1999/xlink">
 <defs>
  <style type="text/css">
   <![CDATA[
    .fil3 {fill:none}
    .fil0 {fill:#0091D2}
    .fil1 {fill:#2A1F74}
    .fil2 {fill:white}
   ]]>
  </style>
     <clipPath id="id0">
      <path d="M153.196 72.3927c-5.1276,-4.7544 -18.455,-15.1448 -37.267,-15.1448 -24.7077,0 -54.2995,19.645 -54.2995,57.6098 0,31.3335 28.1639,56.528 60.9741,56.528 16.6106,0 32.3287,-5.5495 44.0768,-17.3083 25.6703,-25.6652 25.4918,-66.7238 1.2439,-92.8919l-10.0821 11.0071c-0.6172,0.6729 -1.5007,1.0698 -2.4226,1.0698 -0.8066,0 -1.6133,-0.3201 -2.2023,-0.8579l-0.0213 -0.0118z"/>
     </clipPath>
 </defs>
 <g id="Layer_x0020_1">
  <metadata id="CorelCorpID_0Corel-Layer"/>
  <g id="Layer_2" data-name="Layer 2">
   <g id="Capa_1" data-name="Capa 1">
    <path id="_170360624" class="fil0" d="M57.5838 52.9641c-22.7172,23.0363 -30.9224,56.6091 -20.0128,89.5545 1.629,5.5525 4.6099,11.5143 7.8618,16.3922 33.708,51.2003 103.531,56.0304 144.119,14.9068 38.7653,-39.2737 38.3488,-102.768 -0.9249,-141.528 -19.6487,-19.7509 -47.5032,-31.1459 -75.7798,-31.1459 -28.2764,0 -55.7089,11.395 -75.5447,30.8088 -22.5417,22.5416 -34.8141,52.5409 -34.8141,82.9947 0,30.9082 12.727,61.362 34.5446,82.7252 48.4093,47.7819 127.151,49.0638 174.966,1.2494l-20.148 -18.6497c-43.114,41.1073 -114.598,35.8553 -150.485,-16.0968 -4.4037,-6.6178 -8.4768,-15.0773 -10.67,-22.5968 -10.3462,-34.4175 -1.3458,-69.0828 22.3504,-93.0928 16.1509,-16.3618 37.3968,-25.6109 60.3953,-25.6109 33.3835,0 85.1895,24.5346 85.1895,81.9334 0,50.7243 -42.8652,79.3371 -75.843,78.6015 -25.1404,-0.5409 -48.723,-12.1753 -63.235,-33.9514 -2.6549,-3.985 -5.1185,-8.9121 -6.6862,-13.3913 -8.5947,-26.5521 -1.931,-53.5477 16.3888,-72.1055 11.8154,-12.9321 28.8592,-20.0549 46.1572,-20.0549 15.5175,0 30.7807,5.8509 42.4824,15.7719l9.406 -10.2768c-13.4324,-12.3956 -33.3613,-20.1803 -52.9789,-20.1803 -20.8629,0 -41.4146,8.4075 -56.05,23.0428l-0.6881 0.7001z"/>
    <path id="_170363384" class="fil1" d="M156.112 66.8757c-5.6414,-5.2304 -20.3049,-16.6376 -40.9991,-16.6376 -27.1849,0 -59.7408,21.6354 -59.7408,63.3756 0,34.4707 30.9874,63.3756 67.0698,63.3756 17.8428,-0.0002 35.743,-7.4809 48.2999,-20.0378 28.2721,-28.2721 28.0557,-73.4415 1.3793,-102.227l-10.8707 11.9298c-0.6773,0.7537 -1.6637,1.1906 -2.6784,1.1906 -0.8878,0 -1.7757,-0.3382 -2.4239,-0.9301l-0.0361 -0.0387z"/>
    <polygon id="_170363816" class="fil2" points="157.318,78.3911 86.148,78.3911 86.148,80.3437 86.148,82.2963 86.148,92.5461 90.0532,92.5461 90.0532,82.2963 157.318,82.2963 "/>
    <g>
    </g>
    <g style="clip-path:url(#id0)">
     <g>
      <path id="_170366144" class="fil2" d="M157.318 161.648l0 -72.7369 -71.1697 0 0 71.0335c10.2809,7.1848 22.9749,11.4409 36.4557,11.4409 12.5173,0 24.5273,-3.1523 34.714,-9.7375z"/>
     </g>
    </g>
    <path class="fil3" d="M153.196 72.3927c-5.1276,-4.7544 -18.455,-15.1448 -37.267,-15.1448 -24.7077,0 -54.2995,19.645 -54.2995,57.6098 0,31.3335 28.1639,56.528 60.9741,56.528 16.6106,0 32.3287,-5.5495 44.0768,-17.3083 25.6703,-25.6652 25.4918,-66.7238 1.2439,-92.8919l-10.0821 11.0071c-0.6172,0.6729 -1.5007,1.0698 -2.4226,1.0698 -0.8066,0 -1.6133,-0.3201 -2.2023,-0.8579l-0.0213 -0.0118z"/>
    <rect id="_170364680" class="fil0" x="95.5324" y="145.131" width="53.4017" height="3.9052"/>
    <rect id="_170630632" class="fil0" x="95.5324" y="132.15" width="53.4017" height="3.9052"/>
    <rect id="_170631016" class="fil0" x="95.5324" y="106.863" width="53.4017" height="29.1862"/>
    <rect id="_170631448" class="fil0" x="95.5324" y="106.863" width="53.4017" height="3.9052"/>
    <rect id="_170631928" class="fil1" x="147.62" y="76.7198" width="11.3694" height="7.2479"/>
   </g>
  </g>
 </g>
</svg>
