<?xml version="1.0" encoding="UTF-8"?>
<!DOCTYPE svg PUBLIC "-//W3C//DTD SVG 1.1//EN" "http://www.w3.org/Graphics/SVG/1.1/DTD/svg11.dtd">
<!-- Creator: CorelDRAW -->
<svg xmlns="http://www.w3.org/2000/svg" xml:space="preserve" width="220.9mm" height="235.4mm" style="shape-rendering:geometricPrecision; text-rendering:geometricPrecision; image-rendering:optimizeQuality; fill-rule:evenodd; clip-rule:evenodd"
viewBox="0 0 220.9 235.4"
 xmlns:xlink="http://www.w3.org/1999/xlink">
 <defs>
  <style type="text/css">
   <![CDATA[
    .fil3 {fill:none}
    .fil0 {fill:#0091D2}
    .fil1 {fill:#2A1F74}
    .fil2 {fill:white}
   ]]>
  </style>
      <clipPath id="id0">
       <path d="M152.752 71.2998c-5.1781,-4.8012 -18.6367,-15.2939 -37.6338,-15.2939 -24.9509,0 -54.834,19.8383 -54.834,58.1768 0,31.6419 28.4411,57.0844 61.5742,57.0844 16.7741,0 32.647,-5.6041 44.5106,-17.4787 25.9231,-25.8958 25.7428,-67.4078 1.2562,-93.7897l-10.1813 11.0881c-0.6159,0.6855 -1.521,1.0863 -2.4519,1.0863 -0.8146,0 -1.6291,-0.3103 -2.2239,-0.8534l-0.0161 -0.0199z"/>
      </clipPath>
 </defs>
 <g id="Layer_x0020_1">
  <metadata id="CorelCorpID_0Corel-Layer"/>
  <g id="_170350496">
   <g id="Layer_2" data-name="Layer 2">
    <g id="Capa_1" data-name="Capa 1">
     <path id="_170642056" class="fil0" d="M56.1987 52.9526c-22.9408,23.2631 -31.2268,57.1663 -20.2098,90.4359 1.645,5.6071 4.6553,11.6277 7.9392,16.5535 34.0398,51.7042 104.55,56.5819 145.538,15.0535 39.1469,-39.6603 38.7263,-103.78 -0.934,-142.921 -19.8422,-19.9451 -47.971,-31.4523 -76.5259,-31.4523 -28.5546,0 -56.2572,11.5072 -76.2882,31.1121 -22.7635,22.7635 -35.1567,53.0581 -35.1567,83.8116 0,31.2123 12.8522,61.9658 34.8846,83.5392 48.8858,48.2522 128.403,49.5467 176.688,1.2617l-20.3463 -18.8333c-43.5384,41.5119 -115.726,36.2082 -151.967,-16.2552 -4.4468,-6.683 -8.56,-15.2257 -10.7747,-22.8192 -10.4483,-34.7561 -1.3594,-69.7627 22.5701,-94.0089 16.3098,-16.5228 37.7649,-25.863 60.9898,-25.863 33.7121,0 86.028,24.7761 86.028,82.7398 0,51.2235 -43.2871,80.118 -76.5895,79.3752 -25.3878,-0.5462 -49.2026,-12.2952 -63.8574,-34.2856 -2.681,-4.0244 -5.1688,-9 -6.752,-13.5233 -8.6793,-26.8134 -1.95,-54.0748 16.5502,-72.8152 11.9317,-13.059 29.1432,-20.2519 46.6114,-20.2519 15.6702,0 31.0836,5.9084 42.9005,15.9271l9.4986 -10.378c-13.5647,-12.5176 -33.6898,-20.379 -53.5004,-20.379 -21.0682,0 -41.8222,8.4903 -56.6015,23.2696l-0.695 0.7069z"/>
     <path id="_170641624" class="fil1" d="M155.696 67.0011c-5.697,-5.2818 -20.5047,-16.8014 -41.4027,-16.8014 -27.4525,0 -60.3289,21.8484 -60.3289,63.9994 0,34.8099 31.2924,63.9994 67.73,63.9994 18.0185,-0.0002 36.095,-7.5545 48.7755,-20.235 28.5504,-28.5504 28.3319,-74.1644 1.3928,-103.234l-10.9777 12.0473c-0.684,0.7612 -1.6801,1.2024 -2.7048,1.2024 -0.8966,0 -1.7931,-0.3416 -2.4478,-0.9393l-0.0364 -0.0392z"/>
     <g>
     </g>
     <g style="clip-path:url(#id0)">
      <g>
       <path id="_305855832" class="fil2" d="M156.914 161.434l0 -73.4582 -71.8703 0 0 71.7378c10.3821,7.2556 23.201,11.5538 36.8146,11.5538 12.6406,0 24.7687,-3.1833 35.0557,-9.8334z"/>
      </g>
     </g>
     <path class="fil3" d="M152.752 71.2998c-5.1781,-4.8012 -18.6367,-15.2939 -37.6338,-15.2939 -24.9509,0 -54.834,19.8383 -54.834,58.1768 0,31.6419 28.4411,57.0844 61.5742,57.0844 16.7741,0 32.647,-5.6041 44.5106,-17.4787 25.9231,-25.8958 25.7428,-67.4078 1.2562,-93.7897l-10.1813 11.0881c-0.6159,0.6855 -1.521,1.0863 -2.4519,1.0863 -0.8146,0 -1.6291,-0.3103 -2.2239,-0.8534l-0.0161 -0.0199z"/>
     <polygon id="_305854368" class="fil1" points="162.415,87.0033 130.117,87.0033 130.117,101.451 143.532,101.451 143.532,114.866 162.415,114.866 162.415,101.451 "/>
     <rect id="_305856120" class="fil2" x="150.229" y="81.219" width="13.4149" height="13.4149"/>
     <rect id="_305856600" class="fil2" x="146.81" y="98.1733" width="13.4149" height="13.4149"/>
     <rect id="_305857080" class="fil2" x="133.394" y="84.753" width="13.4149" height="13.4149"/>
     <rect id="_305857512" class="fil0" x="94.5208" y="144.754" width="53.9273" height="3.9436"/>
     <rect id="_305857944" class="fil0" x="94.5208" y="131.645" width="53.9273" height="3.9436"/>
     <rect id="_305858376" class="fil0" x="94.5208" y="119.077" width="53.9273" height="3.9436"/>
     <rect id="_305858832" class="fil0" x="146.809" y="103.084" width="4.9159" height="3.9436"/>
     <rect id="_305859240" class="fil0" x="94.5207" y="106.11" width="49.0114" height="3.9436"/>
    </g>
   </g>
  </g>
 </g>
</svg>
