<?xml version="1.0" encoding="UTF-8"?>
<!DOCTYPE svg PUBLIC "-//W3C//DTD SVG 1.1//EN" "http://www.w3.org/Graphics/SVG/1.1/DTD/svg11.dtd">
<!-- Creator: CorelDRAW -->
<svg xmlns="http://www.w3.org/2000/svg" xml:space="preserve" width="220.9mm" height="235.4mm" style="shape-rendering:geometricPrecision; text-rendering:geometricPrecision; image-rendering:optimizeQuality; fill-rule:evenodd; clip-rule:evenodd"
viewBox="0 0 220.9 235.4"
 xmlns:xlink="http://www.w3.org/1999/xlink">
 <defs>
  <style type="text/css">
   <![CDATA[
    .fil0 {fill:#0091D2}
    .fil1 {fill:#2A1F74}
    .fil2 {fill:white}
   ]]>
  </style>
 </defs>
 <g id="Layer_x0020_1">
  <metadata id="CorelCorpID_0Corel-Layer"/>
  <g id="Layer_2" data-name="Layer 2">
   <g id="Capa_1" data-name="Capa 1">
    <path id="_170640544" class="fil0" d="M57.0635 52.3269c-22.9408,23.2631 -31.2268,57.1663 -20.2098,90.4359 1.645,5.6071 4.6553,11.6277 7.9392,16.5535 34.0398,51.7042 104.55,56.5819 145.538,15.0535 39.1469,-39.6603 38.7263,-103.78 -0.934,-142.921 -19.8422,-19.9451 -47.971,-31.4523 -76.5259,-31.4523 -28.5546,0 -56.2572,11.5072 -76.2882,31.1121 -22.7635,22.7635 -35.1567,53.0581 -35.1567,83.8116 0,31.2123 12.8522,61.9658 34.8846,83.5392 48.8858,48.2522 128.403,49.5467 176.688,1.2617l-20.3463 -18.8333c-43.5384,41.5119 -115.726,36.2082 -151.967,-16.2552 -4.4468,-6.683 -8.56,-15.2257 -10.7747,-22.8192 -10.4483,-34.7561 -1.3594,-69.7627 22.5701,-94.0089 16.3098,-16.5228 37.7649,-25.863 60.9898,-25.863 33.7121,0 86.028,24.7761 86.028,82.7398 0,51.2235 -43.2871,80.118 -76.5895,79.3752 -25.3878,-0.5462 -49.2026,-12.2952 -63.8574,-34.2856 -2.681,-4.0244 -5.1688,-9 -6.752,-13.5233 -8.6793,-26.8134 -1.95,-54.0748 16.5502,-72.8152 11.9317,-13.059 29.1432,-20.2519 46.6114,-20.2519 15.6702,0 31.0836,5.9084 42.9005,15.9271l9.4986 -10.378c-13.5647,-12.5176 -33.6898,-20.379 -53.5004,-20.379 -21.0682,0 -41.8222,8.4903 -56.6015,23.2696l-0.695 0.7069z"/>
    <path id="_170639464" class="fil1" d="M156.561 66.3754c-5.697,-5.2818 -20.5047,-16.8014 -41.4027,-16.8014 -27.4525,0 -60.3289,21.8484 -60.3289,63.9994 0,34.8099 31.2924,63.9994 67.73,63.9994 18.0185,-0.0002 36.095,-7.5545 48.7755,-20.235 28.5504,-28.5504 28.3319,-74.1644 1.3928,-103.234l-10.9777 12.0473c-0.684,0.7612 -1.6801,1.2024 -2.7048,1.2024 -0.8966,0 -1.7931,-0.3416 -2.4478,-0.9393l-0.0364 -0.0392z"/>
    <path id="_170639728" class="fil0" d="M129.983 133.352c-3.2901,6.1128 -9.8505,10.1385 -16.8581,10.1385 -10.5111,0 -19.0843,-8.5732 -19.0843,-19.0846 0,-10.5111 8.5732,-19.0843 19.0843,-19.0843 8.1259,0 15.4317,5.1439 18.0409,12.8222 2.8184,0.0601 5.9428,0.1802 8.2915,-1.4092 -3.3222,-11.5479 -14.2734,-19.815 -26.4056,-19.815 -15.1381,0 -27.485,12.3469 -27.485,27.485 0,15.1384 12.3469,27.4853 27.485,27.4853 11.9175,0 22.6539,-7.8376 26.1969,-19.1109 -1.6819,0.7786 -3.4312,0.9627 -4.9963,0.9627 -1.381,0 -2.854,-0.1841 -4.143,-0.3683l-0.1263 -0.0214z"/>
    <path id="_306318352" class="fil2" d="M154.191 83.3461c-5.0438,-5.0395 -12.2187,-8.0379 -19.3935,-8.0379 -11.4583,0 -21.9529,7.2819 -25.8077,17.9906 1.1361,-0.1639 2.305,-0.1912 3.4193,-0.2403 3.2385,-5.7419 9.8007,-9.6941 16.7357,-9.6941 10.5144,0 19.09,8.5756 19.09,19.09 0,10.5144 -8.5756,19.0897 -19.09,19.0897 -8.2027,0 -15.5852,-5.2942 -18.1206,-13.0495 -0.7386,0.3887 -1.7698,0.8699 -2.526,1.2136 2.962,11.9979 13.8849,20.4578 26.307,20.4578 15.0993,0 27.4143,-12.315 27.4143,-27.414 0,-7.389 -3.1055,-14.6709 -8.3528,-19.704l0.3243 0.2981z"/>
   </g>
  </g>
 </g>
</svg>
