<?xml version="1.0" encoding="UTF-8" standalone="no"?>
<!-- Creator: CorelDRAW -->

<svg
   xmlns:dc="http://purl.org/dc/elements/1.1/"
   xmlns:cc="http://creativecommons.org/ns#"
   xmlns:rdf="http://www.w3.org/1999/02/22-rdf-syntax-ns#"
   xmlns:svg="http://www.w3.org/2000/svg"
   xmlns="http://www.w3.org/2000/svg"
   xmlns:sodipodi="http://sodipodi.sourceforge.net/DTD/sodipodi-0.dtd"
   xmlns:inkscape="http://www.inkscape.org/namespaces/inkscape"
   xml:space="preserve"
   width="220.9mm"
   height="235.4mm"
   style="shape-rendering:geometricPrecision; text-rendering:geometricPrecision; image-rendering:optimizeQuality; fill-rule:evenodd; clip-rule:evenodd"
   viewBox="0 0 220.9 235.4"
   id="svg3392"
   version="1.1"
   inkscape:version="0.91 r"
   sodipodi:docname="Reserva.svg"><metadata
     id="metadata3408"><rdf:RDF><cc:Work
         rdf:about=""><dc:format>image/svg+xml</dc:format><dc:type
           rdf:resource="http://purl.org/dc/dcmitype/StillImage" /><dc:title></dc:title></cc:Work></rdf:RDF></metadata><sodipodi:namedview
     pagecolor="#ffffff"
     bordercolor="#666666"
     borderopacity="1"
     objecttolerance="10"
     gridtolerance="10"
     guidetolerance="10"
     inkscape:pageopacity="0"
     inkscape:pageshadow="2"
     inkscape:window-width="1366"
     inkscape:window-height="741"
     id="namedview3406"
     showgrid="false"
     inkscape:zoom="0.67138678"
     inkscape:cx="425.13833"
     inkscape:cy="378.78017"
     inkscape:window-x="0"
     inkscape:window-y="0"
     inkscape:window-maximized="1"
     inkscape:current-layer="svg3392" /><defs
     id="defs3394"><style
       type="text/css"
       id="style3396"><![CDATA[
    .fil0 {fill:#0091D2}
    .fil1 {fill:#2A1F74}
    .fil2 {fill:white}
   ]]></style></defs><g
     id="Layer_x0020_1"><metadata
       id="CorelCorpID_0Corel-Layer" /><g
       id="Layer_2"
       data-name="Layer 2"><g
         id="Capa_1"
         data-name="Capa 1"><path
           id="_170641048"
           class="fil0"
           d="M57.0635 52.3269c-22.9408,23.2631 -31.2268,57.1663 -20.2098,90.4359 1.645,5.6071 4.6553,11.6277 7.9392,16.5535 34.0398,51.7042 104.55,56.5819 145.538,15.0535 39.1469,-39.6603 38.7263,-103.78 -0.934,-142.921 -19.8422,-19.9451 -47.971,-31.4523 -76.5259,-31.4523 -28.5546,0 -56.2572,11.5072 -76.2882,31.1121 -22.7635,22.7635 -35.1567,53.0581 -35.1567,83.8116 0,31.2123 12.8522,61.9658 34.8846,83.5392 48.8858,48.2522 128.403,49.5467 176.688,1.2617l-20.3463 -18.8333c-43.5384,41.5119 -115.726,36.2082 -151.967,-16.2552 -4.4468,-6.683 -8.56,-15.2257 -10.7747,-22.8192 -10.4483,-34.7561 -1.3594,-69.7627 22.5701,-94.0089 16.3098,-16.5228 37.7649,-25.863 60.9898,-25.863 33.7121,0 86.028,24.7761 86.028,82.7398 0,51.2235 -43.2871,80.118 -76.5895,79.3752 -25.3878,-0.5462 -49.2026,-12.2952 -63.8574,-34.2856 -2.681,-4.0244 -5.1688,-9 -6.752,-13.5233 -8.6793,-26.8134 -1.95,-54.0748 16.5502,-72.8152 11.9317,-13.059 29.1432,-20.2519 46.6114,-20.2519 15.6702,0 31.0836,5.9084 42.9005,15.9271l9.4986 -10.378c-13.5647,-12.5176 -33.6898,-20.379 -53.5004,-20.379 -21.0682,0 -41.8222,8.4903 -56.6015,23.2696l-0.695 0.7069z" /><path
           id="_170640616"
           class="fil1"
           d="M156.561 66.3754c-5.697,-5.2818 -20.5047,-16.8014 -41.4027,-16.8014 -27.4525,0 -60.3289,21.8484 -60.3289,63.9994 0,34.8099 31.2924,63.9994 67.73,63.9994 18.0185,-0.0002 36.095,-7.5545 48.7755,-20.235 28.5504,-28.5504 28.3319,-74.1644 1.3928,-103.234l-10.9777 12.0473c-0.684,0.7612 -1.6801,1.2024 -2.7048,1.2024 -0.8966,0 -1.7931,-0.3416 -2.4478,-0.9393l-0.0364 -0.0392z" /><polygon
           id="_170640880"
           class="fil0"
           points="88.6235,147.881 111.679,104.779 127.568,118.342 " /><polygon
           id="_169811608"
           class="fil2"
           points="113.864,102.048 152.803,72.5093 129.753,115.611 " /></g></g></g><path
     style="fill:#a0a0a0;stroke:none;stroke-width:1px;stroke-linecap:butt;stroke-linejoin:miter;stroke-opacity:1"
     d="m 431.8949,384.841 -27.32502,-23.32697 3.59695,-2.66089 c 1.97833,-1.46349 31.74764,-24.07273 66.15404,-50.24276 34.40639,-26.17003 62.79183,-47.37541 63.07875,-47.12308 0.50425,0.44348 -75.23768,143.21849 -77.20603,145.53485 -0.53552,0.6302 -13.26993,-9.35132 -28.29869,-22.18115 z"
     id="path3410"
     inkscape:connector-curvature="0"
     transform="scale(0.28222222,0.28222222)" /><path
     style="fill:#a0a0a0;stroke:none;stroke-width:1px;stroke-linecap:butt;stroke-linejoin:miter;stroke-opacity:1"
     d="m 318.41168,517.21304 c 2.81521,-5.50459 76.72876,-144.13202 77.11299,-144.62809 0.22296,-0.28785 12.82945,10.06462 28.01444,23.00551 15.18498,12.94088 27.46088,23.66716 27.27977,23.83619 -2.11051,1.96972 -132.55568,100.39294 -133.05573,100.39294 -0.37649,0 -0.0847,-1.17295 0.64853,-2.60655 z"
     id="path3412"
     inkscape:connector-curvature="0"
     transform="scale(0.28222222,0.28222222)" /><path
     style="fill:#0000ff"
     d="m 449.00014,398.10397 c -15.15264,-12.15653 -41.63261,-34.8971 -42.14218,-36.19102 -0.52643,-1.33674 124.67796,-96.79007 126.95775,-96.79007 0.59732,0 -4.76141,11.22677 -11.9083,24.94837 -18.55513,35.62473 -60.4355,114.12311 -61.54487,115.35648 -0.51492,0.57248 -5.628,-2.72322 -11.3624,-7.32376 z"
     id="path3422"
     inkscape:connector-curvature="0"
     transform="scale(0.28222222,0.28222222)" /><path
     style="fill:#2a1f74;fill-opacity:1"
     d="m 320.16234,516.08722 c 0,-1.64145 75.08383,-142.21432 75.96631,-142.22506 0.86239,-0.0105 45.18666,37.21142 50.34892,42.2812 l 3.43524,3.37369 -63.01342,47.41401 c -34.65738,26.0777 -63.85124,48.05759 -64.87524,48.84419 -1.024,0.7866 -1.86181,0.92699 -1.86181,0.31197 z"
     id="path3424"
     inkscape:connector-curvature="0"
     transform="scale(0.28222222,0.28222222)" /><path
     style="fill:#2a1f74;fill-opacity:1"
     d="m 454.04672,401.04099 c -10.05599,-7.69714 -32.08323,-26.26494 -38.93522,-32.82033 l -6.92951,-6.62957 4.69533,-4.03817 c 16.03276,-13.78881 117.17633,-89.92042 118.15814,-88.93862 0.36941,0.36941 -1.72457,5.42991 -4.65328,11.24556 -8.59252,17.06245 -65.00308,122.93763 -66.1196,124.09775 -0.56119,0.5831 -3.35833,-0.72938 -6.21586,-2.91662 z"
     id="path4238"
     inkscape:connector-curvature="0"
     transform="scale(0.28222222,0.28222222)" /><rect
     style="fill:#2a1f74;fill-opacity:1"
     id="rect4242"
     width="74.82357"
     height="91.637848"
     x="79.867851"
     y="66.206253" /><rect
     y="67.887672"
     x="82.179817"
     height="91.637848"
     width="74.82357"
     id="rect4244"
     style="fill:#2a1f74;fill-opacity:1" /><path
     style="fill:#0091d2;fill-opacity:1"
     d=""
     id="path5812"
     inkscape:connector-curvature="0"
     transform="scale(0.28222222,0.28222222)" /><path
     style="fill:#0091d2;fill-opacity:1"
     d=""
     id="path5836"
     inkscape:connector-curvature="0"
     transform="scale(0.28222222,0.28222222)" /><path
     style="fill:#2a1f74;fill-opacity:1"
     d="m 328.49909,498.85791 c -0.1088,-0.20331 -0.0769,-0.38624 0.14344,-0.82282 0.38615,-0.76507 32.67723,-61.37898 44.06308,-82.71124 8.41273,-15.76192 9.2349,-17.24979 9.55288,-17.28786 0.41419,-0.0496 0.4256,0.014 0.0993,0.55272 -1.64866,2.72164 -40.29383,75.11017 -51.15644,95.82412 -1.35748,2.58858 -2.48933,4.70651 -2.51523,4.70651 -0.0259,0 -0.11004,-0.11765 -0.187,-0.26143 z"
     id="path5838"
     inkscape:connector-curvature="0"
     transform="scale(0.28222222,0.28222222)" /><path
     style="fill:#2a1f74;fill-opacity:1"
     d="m 334.64867,507.76796 c -0.19737,-0.30122 -0.1158,-0.36603 10.41815,-8.27752 16.88772,-12.68345 57.02448,-42.95546 70.23105,-52.96977 2.42884,-1.84174 2.86613,-2.12801 2.83049,-1.85297 -0.0339,0.26171 -8.17057,6.49017 -41.62679,31.86458 -22.87154,17.3466 -41.60023,31.53928 -41.6193,31.53928 -0.0191,0 -0.12419,-0.13662 -0.2336,-0.3036 z"
     id="path5840"
     inkscape:connector-curvature="0"
     transform="scale(0.28222222,0.28222222)" /><path
     style="fill:#2a1f74;fill-opacity:1"
     d="m 334.15358,507.07758 c -0.13883,-0.16727 -0.1358,-0.2353 0.0168,-0.37718 0.15963,-0.14842 40.55407,-30.56072 69.43428,-52.27592 4.99614,-3.75662 10.28281,-7.73729 11.74816,-8.84592 1.46535,-1.10863 2.69464,-2.0157 2.73174,-2.0157 0.0371,0 0.0644,0.16292 0.0607,0.36204 -0.006,0.31862 -0.49933,0.73307 -4.11351,3.45582 -2.25868,1.70158 -8.4909,6.40632 -13.84938,10.45497 -8.38321,6.33402 -16.55951,12.50203 -39.89064,30.09256 -15.06808,11.36059 -25.74305,19.35341 -25.84782,19.35341 -0.0665,0 -0.19712,-0.0918 -0.29027,-0.20408 z"
     id="path5842"
     inkscape:connector-curvature="0"
     transform="scale(0.28222222,0.28222222)" /><path
     style="fill:#2a1f74;fill-opacity:1"
     d="m 328.11524,498.27818 c -0.12753,-0.15366 -0.11491,-0.28252 0.0618,-0.63045 0.26638,-0.52465 32.99963,-61.76698 33.04786,-61.83097 0.0185,-0.0245 0.12369,-0.0245 0.23382,0 0.14782,0.0329 -1.3255,2.90561 -5.62693,10.97154 -3.20496,6.00984 -10.52599,19.75414 -16.26896,30.54289 -12.49835,23.47938 -11.24667,21.18904 -11.44755,20.94699 z"
     id="path5844"
     inkscape:connector-curvature="0"
     transform="scale(0.28222222,0.28222222)" /><path
     style="fill:#2a1f74;fill-opacity:1"
     d="m 328.58539,498.89945 c -0.19711,-0.19711 -0.029,-0.60373 1.21338,-2.9348 0.71537,-1.34225 2.76645,-5.19524 4.55796,-8.5622 22.8315,-42.90941 27.49443,-51.60696 27.66755,-51.60696 0.25621,0 0.23415,0.0687 -0.3981,1.23985 -2.89067,5.35458 -23.81364,44.71666 -29.11699,54.7774 -3.78212,7.17486 -3.80119,7.20932 -3.9238,7.08671 z"
     id="path5846"
     inkscape:connector-curvature="0"
     transform="scale(0.28222222,0.28222222)" /><path
     style="fill:#0091d2;fill-opacity:1"
     d=""
     id="path5852"
     inkscape:connector-curvature="0"
     transform="scale(0.28222222,0.28222222)" /><path
     style="fill:#0091d2;fill-opacity:1"
     d="m 109.49387,114.97302 0,-0.39012 9.62306,0 9.62306,0 0,0.39012 0,0.39013 -9.62306,0 -9.62306,0 0,-0.39013 z m 6.61353,0.0909 c -0.82762,-0.0137 -1.83079,-0.0297 -2.22928,-0.0355 l -0.72451,-0.0106 0.50159,-0.0319 c 0.27587,-0.0176 1.5382,-0.0458 2.80517,-0.0628 2.26846,-0.0304 2.28064,-0.0309 0.79883,-0.0365 -1.7371,-0.006 -4.10454,0.0524 -4.19343,0.10434 -0.0334,0.0195 -0.0524,0.0393 -0.0422,0.0439 0.0544,0.0245 1.66041,0.0528 3.02811,0.0533 l 1.56049,5.6e-4 -1.50476,-0.025 z m 8.49914,-0.0257 c -0.24012,-0.006 -0.63303,-0.006 -0.87314,0 -0.24011,0.006 -0.0436,0.0118 0.43657,0.0118 0.48022,0 0.67668,-0.005 0.43657,-0.0118 z m 0.55695,-0.0497 c -0.0936,-0.0545 -2.21342,-0.10681 -4.09594,-0.10106 l -1.59765,0.005 2.32217,0.0307 c 1.27719,0.0169 2.53952,0.0452 2.80518,0.0629 0.26565,0.0177 0.51645,0.034 0.55732,0.0364 0.0682,0.004 0.069,0.001 0.009,-0.0338 z"
     id="path5854"
     inkscape:connector-curvature="0" /><path
     style="fill:#0091d2;fill-opacity:1"
     d="m 109.21629,121.0364 0,-0.39013 9.623,0 9.62305,0 0,0.39013 0,0.39012 -9.62305,0 -9.623,0 0,-0.39012 z m 4.54368,0.0654 c -0.12687,-0.007 -0.34423,-0.007 -0.48302,-1.1e-4 -0.13878,0.007 -0.035,0.0131 0.23068,0.0131 0.26565,6e-5 0.3792,-0.006 0.25234,-0.013 l 0,0 z m -0.40096,-0.0654 c 0.0204,-0.007 -0.0715,-0.0128 -0.20435,-0.013 -0.13283,-1.8e-4 -0.27494,0.013 -0.31581,0.0293 -0.0695,0.0277 0.43759,0.0118 0.52016,-0.0163 z m 11.22996,-0.008 c -0.0562,-0.009 -0.14816,-0.009 -0.20435,0 -0.0562,0.009 -0.0102,0.0155 0.10217,0.0155 0.11239,0 0.15837,-0.007 0.10218,-0.0155 z m -10.14222,-0.0375 c -0.0761,-0.008 -0.20984,-0.008 -0.29723,-2.5e-4 -0.0874,0.008 -0.0251,0.0144 0.13835,0.0145 0.16348,1.3e-4 0.23498,-0.006 0.15888,-0.0143 z m 9.38055,-5.7e-4 c -0.14816,-0.007 -0.39059,-0.007 -0.53875,0 -0.14815,0.007 -0.0269,0.0128 0.26938,0.0128 0.2963,0 0.41752,-0.006 0.26937,-0.0128 z m -7.37518,-0.0366 c -0.0766,-0.008 -0.20203,-0.008 -0.27867,0 -0.0766,0.008 -0.0139,0.0146 0.13933,0.0146 0.15327,0 0.21597,-0.007 0.13934,-0.0146 z m 4.92348,8.5e-4 c -0.0457,-0.009 -0.1293,-0.009 -0.18577,-5.7e-4 -0.0565,0.009 -0.0191,0.0157 0.0831,0.016 0.10218,2.8e-4 0.14839,-0.007 0.10269,-0.0155 z"
     id="path5858"
     inkscape:connector-curvature="0" /><path
     style="fill:#0091d2;fill-opacity:1"
     d="m 109.1383,108.34244 0,-0.39013 9.623,0 9.62305,0 0,0.39013 0,0.39012 -9.62305,0 -9.623,0 0,-0.39012 z m 4.37537,0.0674 c -0.0355,-0.009 -0.1024,-0.01 -0.14862,-8.5e-4 -0.0462,0.009 -0.0172,0.0165 0.0646,0.0169 0.0817,2.9e-4 0.11955,-0.007 0.084,-0.0162 z m -0.35289,-0.0749 c -0.0457,-0.009 -0.1293,-0.009 -0.18577,-5.6e-4 -0.0565,0.009 -0.0191,0.0157 0.0831,0.016 0.10217,2.8e-4 0.14838,-0.007 0.10268,-0.0155 z m 10.40326,-0.0371 c -0.0457,-0.009 -0.12929,-0.009 -0.18577,-5.7e-4 -0.0565,0.009 -0.0191,0.0157 0.0831,0.016 0.10217,2.8e-4 0.14838,-0.007 0.10268,-0.0155 z"
     id="path5860"
     inkscape:connector-curvature="0" /><path
     inkscape:connector-curvature="0"
     style="fill:#474747"
     d="m 137.00656,93.74521 -18.54452,-35.506934 -18.35346,35.62727 0,59.720854 3.87277,8.44246 2.9052,-5.60598 2.93281,5.58635 2.90271,-5.60876 2.93789,5.58082 2.90512,-5.60598 2.94037,5.58358 2.91028,-5.60589 2.94038,5.58348 2.91268,-5.60866 2.95044,5.58071 3.82499,-8.3949 -0.0267,-0.004 0,-59.390794 -0.008,-0.371695 z m -6.76537,57.02986 -2.90769,5.60024 -2.94039,-5.58347 -2.91028,5.60586 -2.94038,-5.58635 -2.90511,5.60598 -2.94296,-5.58636 -2.89764,5.60311 -2.92782,-5.58347 -2.89762,5.60024 -1.34952,-3.39882 0.003,-58.445167 15.85541,-30.77381 16.01374,30.670231 0,58.685846 -1.29681,3.17508 -2.95542,-5.58914 z"
     id="path4333" /><path
     style="fill:#0091d2;fill-opacity:1"
     d="m 361.6696,559.0363 -6.5213,-14.28938 0.005,-106.35755 0.005,-106.35755 32.20114,-62.48042 c 17.71063,-34.36423 32.42562,-62.24209 32.69999,-61.9508 0.27437,0.29129 15.10749,28.52628 32.96249,62.74442 l 32.46364,62.2148 0,105.5513 0,105.5513 -6.51636,14.48708 c -3.584,7.96789 -6.68733,14.49553 -6.8963,14.50588 -0.20896,0.0104 -2.49282,-3.99638 -5.07523,-8.90384 -2.58242,-4.90744 -4.9249,-9.06414 -5.20553,-9.23709 -0.28062,-0.17295 -2.6793,3.84223 -5.33041,8.92264 -2.6511,5.0804 -4.99699,9.23633 -5.21309,9.23539 -0.21609,-7.4e-4 -2.57042,-4.15852 -5.23183,-9.23908 -2.66142,-5.08056 -5.10179,-9.07492 -5.42307,-8.87636 -0.32127,0.19856 -2.69596,4.57465 -5.27707,9.72464 l -4.69295,9.36365 -5.06137,-9.60848 c -2.78376,-5.28467 -5.15553,-9.7182 -5.27061,-9.85231 -0.11507,-0.1341 -2.55468,4.19252 -5.42133,9.61471 l -5.21211,9.85855 -3.3441,-6.63581 c -1.83926,-3.64969 -4.18754,-8.11113 -5.21839,-9.91431 l -1.87428,-3.27852 -4.96505,9.9083 -4.96506,9.9083 -1.87428,-3.27851 c -1.03085,-1.80319 -3.37766,-6.26171 -5.21513,-9.90784 l -3.34085,-6.62932 -4.84848,9.23586 c -2.66666,5.07974 -5.06744,9.46624 -5.33507,9.74781 -0.26762,0.28156 -3.42117,-5.9183 -7.00789,-13.77746 z m 12.40749,-15.32404 4.56056,-8.94363 5.07034,9.64369 c 2.7887,5.30403 5.19443,9.64369 5.34607,9.64369 0.15165,0 2.52448,-4.36914 5.27298,-9.7092 l 4.99725,-9.70919 4.77754,9.15065 c 2.62765,5.03286 5.02763,9.40668 5.33331,9.7196 0.30567,0.31292 2.71266,-3.61933 5.34886,-8.73834 2.63619,-5.119 4.99675,-9.31277 5.24569,-9.31949 0.24893,-0.007 2.52569,3.99859 5.05946,8.90068 2.53377,4.90209 4.84376,9.05932 5.13332,9.23827 0.28956,0.17896 2.68071,-3.83185 5.31368,-8.9129 2.63298,-5.08104 4.9879,-9.23826 5.23316,-9.23826 0.24526,0 2.61502,4.16724 5.26612,9.26055 2.79223,5.36441 5.09906,8.98643 5.48302,8.60903 0.36454,-0.35834 2.74686,-4.73851 5.29403,-9.73373 l 4.63122,-9.08222 5.26945,9.95929 c 4.85034,9.16717 5.32689,9.81195 5.99147,8.10664 0.39711,-1.01896 1.42449,-3.4723 2.28305,-5.45186 1.56039,-3.59769 1.56104,-3.6427 1.56104,-108.1247 l 0,-104.52553 -27.90337,-53.41995 c -15.34686,-29.38098 -28.17769,-53.69427 -28.51296,-54.02954 -0.33527,-0.33528 -13.24843,23.92425 -28.6959,53.91006 l -28.0863,54.51963 0,103.30482 0,103.3048 2.35982,6.02875 c 1.52674,3.90044 2.61519,5.77338 3.08318,5.30539 0.39785,-0.39785 2.77561,-4.748 5.28391,-9.667 z"
     id="path5904"
     inkscape:connector-curvature="0"
     transform="scale(0.28222222,0.28222222)" /><path
     style="fill:#ffffff;fill-opacity:1"
     d="m 366.07629,547.56497 c -2.15714,-5.13691 -2.42189,-17.00919 -2.42189,-108.6061 l 0,-102.83874 18.53701,-36.10039 c 26.47451,-51.55849 36.69523,-70.64549 37.82192,-70.63172 0.54179,0.007 13.21721,23.35227 28.16761,51.8792 l 27.18255,51.86715 0,105.93288 c 0,77.59288 -0.46531,106.95412 -1.73926,109.75015 -1.72759,3.79165 -1.77325,3.75696 -6.80326,-5.16866 -2.7852,-4.94226 -5.55376,-8.68323 -6.15236,-8.31328 -0.59859,0.36995 -2.67861,4.06789 -4.62225,8.21766 -1.94364,4.14975 -4.0256,7.54501 -4.62657,7.54501 -0.60097,0 -3.22951,-3.78628 -5.8412,-8.41394 l -4.74854,-8.41396 -5.2752,9.3607 c -4.59617,8.15577 -5.46442,8.99916 -6.74527,6.55212 -0.80853,-1.54471 -3.14615,-5.74846 -5.19471,-9.34168 l -3.72464,-6.53313 -4.50462,8.39495 c -2.47754,4.61722 -5.08407,8.39494 -5.79228,8.39494 -0.70821,0 -3.09564,-3.6864 -5.30539,-8.192 -2.20976,-4.5056 -4.40874,-8.192 -4.88663,-8.192 -0.47789,0 -2.67687,3.6864 -4.88663,8.192 -2.20975,4.5056 -4.6131,8.192 -5.34077,8.192 -0.72767,0 -3.24841,-3.68481 -5.60164,-8.18845 -2.35323,-4.50367 -4.63814,-8.19007 -5.07759,-8.192 -0.43944,-10e-4 -2.86843,4.18554 -5.39775,9.30554 l -4.59876,9.30909 z"
     id="path5908"
     inkscape:connector-curvature="0"
     transform="scale(0.28222222,0.28222222)"
     sodipodi:nodetypes="sscscscssssssscssscssssssscscs" /><path
     style="fill:#ffffff;fill-opacity:1"
     d="m 367.69255,552.29908 c -0.15373,-0.29729 -1.1234,-2.65167 -2.15482,-5.23198 l -1.8753,-4.69146 0.0432,-16.33587 c 0.0238,-8.98473 0.0621,-14.19943 0.0852,-11.58824 0.0602,6.80308 0.4104,19.70528 0.62656,23.08652 0.22332,3.49318 0.62743,6.7821 1.01579,8.26734 0.1581,0.60462 0.8314,2.39728 1.49622,3.98369 0.66481,1.58641 1.17137,2.92176 1.12569,2.96744 -0.0457,0.0457 -0.20885,-0.16016 -0.36258,-0.45744 z"
     id="path5910"
     inkscape:connector-curvature="0"
     transform="scale(0.28222222,0.28222222)" /><path
     style="fill:#ffffff;fill-opacity:1"
     d="m 388.70345,553.42984 c -0.62989,-0.96134 -7.9344,-15.00081 -7.84907,-15.08614 0.0472,-0.0472 0.69354,1.0299 1.43632,2.39355 4.07701,7.48491 5.99763,10.3921 6.86546,10.3921 0.75877,0 2.93168,-3.20987 5.0414,-7.44727 1.47639,-2.96534 2.82409,-5.42866 2.91843,-5.33431 0.0884,0.0883 -7.29276,14.45777 -7.79432,15.17386 l -0.28834,0.41166 -0.32988,-0.50345 z"
     id="path5912"
     inkscape:connector-curvature="0"
     transform="scale(0.28222222,0.28222222)" /><path
     style="fill:#ffffff;fill-opacity:1"
     d="m 368.87552,552.942 c 0,-0.23918 5.3432,-11.0539 6.50674,-13.16974 1.52228,-2.76818 2.46488,-4.30934 2.57087,-4.20335 0.0877,0.0877 -8.61788,17.00775 -8.91132,17.31986 -0.0915,0.0973 -0.16629,0.12123 -0.16629,0.0532 z"
     id="path5914"
     inkscape:connector-curvature="0"
     transform="scale(0.28222222,0.28222222)" /><path
     style="fill:#ffffff;fill-opacity:1"
     d="m 409.08005,552.85025 c -1.30696,-2.30163 -8.57565,-16.28312 -8.50303,-16.35574 0.15409,-0.15409 1.09281,1.50814 3.91375,6.93024 2.91086,5.59495 4.44876,7.83274 5.27379,7.67386 0.4668,-0.0899 2.23907,-2.43966 3.73183,-4.94782 0.68503,-1.15101 1.28143,-2.05683 1.32534,-2.01292 0.0439,0.0439 -0.69442,1.55227 -1.64072,3.35191 -1.66496,3.16636 -3.24147,5.69482 -3.62477,5.81353 -0.1024,0.0317 -0.31669,-0.17216 -0.47619,-0.45306 z"
     id="path5916"
     inkscape:connector-curvature="0"
     transform="scale(0.28222222,0.28222222)" /><path
     style="fill:#ffffff;fill-opacity:1"
     d="m 428.66119,550.67058 c -1.68644,-3.1908 -1.97683,-4.18513 -0.38091,-1.30432 1.02061,1.84232 1.41593,2.23892 2.03563,2.04224 0.62266,-0.19763 1.73659,-1.65104 3.34287,-4.36165 0.85535,-1.44341 1.59369,-2.58587 1.64076,-2.5388 0.1894,0.1894 -3.75986,7.42918 -4.6644,8.55076 l -0.42993,0.53309 -1.54402,-2.92132 z"
     id="path5918"
     inkscape:connector-curvature="0"
     transform="scale(0.28222222,0.28222222)" /><path
     style="fill:#ffffff;fill-opacity:1"
     d="m 450.35125,552.0066 c -0.89686,-1.25685 -5.05721,-9.02912 -4.91124,-9.17508 0.0483,-0.0483 0.48796,0.60506 0.97703,1.45192 1.40082,2.42559 3.54524,5.57469 4.27839,6.28284 0.53717,0.51884 0.73342,0.60868 0.99011,0.45325 0.64973,-0.39341 2.14585,-2.88135 4.07649,-6.77891 2.65058,-5.35098 4.63272,-8.89481 4.85227,-8.67527 0.0858,0.0858 -8.5609,16.90098 -8.93677,17.37927 -0.30471,0.38775 -0.45717,0.27992 -1.32628,-0.93802 z"
     id="path5920"
     inkscape:connector-curvature="0"
     transform="scale(0.28222222,0.28222222)" /><path
     style="fill:#ffffff;fill-opacity:1"
     d="m 471.26311,552.38608 c -0.68898,-0.95097 -3.78668,-6.82881 -3.66369,-6.9518 0.0476,-0.0476 0.53108,0.69066 1.07437,1.64061 1.36712,2.39045 2.34901,3.76976 2.88952,4.05902 0.40758,0.21814 0.5076,0.19892 0.90427,-0.17373 0.67295,-0.63221 1.38832,-2.40217 1.59474,-3.94571 0.28965,-2.16596 0.54648,-6.96752 0.75087,-14.03785 0.26335,-9.11035 0.55383,-36.69706 0.55627,-52.82908 l 0.002,-13.54473 0.58675,0 0.58675,0 -0.11585,33.28 c -0.10858,31.19052 -0.25994,40.98265 -0.67925,43.94354 -0.20403,1.44064 -3.31656,9.3428 -3.68196,9.34782 -0.12736,0.002 -0.48954,-0.35289 -0.80484,-0.78809 z"
     id="path5922"
     inkscape:connector-curvature="0"
     transform="scale(0.28222222,0.28222222)" /><path
     style="fill:#ffffff;fill-opacity:1"
     d="m 475.37151,407.02464 0,-59.57818 0.55854,0 0.55855,0 0,59.57818 0,59.57817 -0.55855,0 -0.55854,0 0,-59.57817 z"
     id="path5924"
     inkscape:connector-curvature="0"
     transform="scale(0.28222222,0.28222222)" /><path
     style="fill:#ffffff;fill-opacity:1"
     d="m 475.37436,340.13882 c 0.002,-5.04164 0.0619,-7.22103 0.19338,-7.02836 0.93356,1.36837 0.92086,1.25799 0.92086,7.9984 l 0,6.3376 -0.55855,0 -0.55854,0 0.003,-7.30764 z"
     id="path5926"
     inkscape:connector-curvature="0"
     transform="scale(0.28222222,0.28222222)" /><path
     style="fill:#ffffff;fill-opacity:1"
     d="m 392.60411,279.16428 c 0.0678,-0.1792 3.31438,-6.52567 7.21452,-14.10327 7.09708,-13.78892 14.65331,-28.10167 17.79089,-33.6989 2.1968,-3.91896 2.35493,-4.18653 2.47497,-4.18792 0.16776,-0.002 3.11058,5.55307 14.23089,26.86291 5.81331,11.14004 10.52249,20.30179 10.46484,20.35944 -0.0576,0.0576 -0.41481,-0.51119 -0.79369,-1.26408 -1.72065,-3.41921 -13.28488,-25.04749 -17.25688,-32.27508 -5.00086,-9.09977 -6.38821,-11.45018 -6.75856,-11.45018 -0.5138,0 -2.22959,2.73037 -5.84109,9.29504 -3.86608,7.02744 -12.45865,23.32415 -19.27245,36.55223 -1.19998,2.3296 -2.22566,4.23563 -2.27928,4.23563 -0.0536,0 -0.042,-0.14662 0.0258,-0.32582 z"
     id="path5928"
     inkscape:connector-curvature="0"
     transform="scale(0.28222222,0.28222222)" /><path
     style="fill:#ffffff;fill-opacity:1"
     d=""
     id="path5930"
     inkscape:connector-curvature="0"
     transform="scale(0.28222222,0.28222222)" /><line
     style="fill:none;stroke:#474747;stroke-width:0.82302594;stroke-miterlimit:10"
     stroke-miterlimit="10"
     x1="108.47254"
     y1="129.28625"
     x2="129.02013"
     y2="129.28625"
     id="line4335" /><path
     style="fill:#0091d2;fill-opacity:1"
     d="m 107.92938,110.68133 0,-0.37155 10.25469,0 10.25469,0 0,0.37155 0,0.37155 -10.25469,0 -10.25469,0 0,-0.37155 z"
     id="path5968"
     inkscape:connector-curvature="0" /><path
     style="clip-rule:evenodd;fill:#0091d2;fill-opacity:1;fill-rule:evenodd;image-rendering:optimizeQuality;shape-rendering:geometricPrecision;text-rendering:geometricPrecision"
     d="m 108.09006,123.26719 0,-0.37155 10.25469,0 10.25469,0 0,0.37155 0,0.37155 -10.25469,0 -10.25469,0 0,-0.37155 z"
     id="path5968-3"
     inkscape:connector-curvature="0" /><path
     style="clip-rule:evenodd;fill:#0091d2;fill-opacity:1;fill-rule:evenodd;image-rendering:optimizeQuality;shape-rendering:geometricPrecision;text-rendering:geometricPrecision"
     d="m 108.01575,117.39675 0,-0.37154 10.25469,0 10.25469,0 0,0.37154 0,0.37155 -10.25469,0 -10.25469,0 0,-0.37155 z"
     id="path5968-5"
     inkscape:connector-curvature="0" /><path
     style="fill:#0091d2;fill-opacity:1"
     d="m 384.54108,458.20193 0,-1.30328 36.30545,0 36.30545,0 0,1.30328 0,1.30327 -36.30545,0 -36.30545,0 0,-1.30327 z"
     id="path5991"
     inkscape:connector-curvature="0"
     transform="scale(0.28222222,0.28222222)" /><path
     style="fill:#001eff;fill-opacity:1"
     d="M 395.2003,625.26954 C 374.99143,621.51888 363.38999,618.34852 347.61734,612.26642 281.56488,586.79586 229.21572,534.30528 206.9651,471.2342 187.14802,415.06115 192.5468,346.36653 221.09714,291.41683 c 10.76425,-20.71752 23.65172,-37.69207 41.95382,-55.25887 28.69523,-27.54237 65.05608,-46.83185 104.96942,-55.68643 16.2527,-3.60558 52.24114,-4.45728 70.48341,-1.66804 37.62242,5.75245 78.24549,24.74959 109.11487,51.02693 10.75748,9.15722 15.14468,10.78506 21.15741,7.85031 2.32237,-1.13353 12.76834,-11.44452 23.21324,-22.91332 10.44492,-11.4688 19.39548,-21.02879 19.89014,-21.24442 0.49467,-0.21564 4.70748,4.23689 9.36182,9.89451 32.29399,39.25515 53.17202,87.74159 59.28189,137.67426 2.60041,21.25172 1.02274,64.62064 -3.04441,83.68872 -4.81745,22.58567 -12.41916,44.10361 -23.15211,65.536 -34.67081,69.23328 -96.52393,116.87491 -173.21892,133.41977 -21.13422,4.55914 -65.35161,5.34834 -85.90742,1.53329 z m -13.58496,-64.62865 c 1.40465,3.10077 3.79114,7.26897 5.30332,9.26266 l 2.74942,3.62489 4.83285,-9.57381 4.83284,-9.57381 4.58154,9.30019 c 2.51985,5.1151 5.09901,9.30019 5.73146,9.30019 0.63245,0 3.26255,-4.18509 5.84463,-9.30019 l 4.69473,-9.30019 4.58154,9.30019 c 2.51986,5.1151 5.11594,9.30019 5.76909,9.30019 0.65315,0 2.99551,-3.6864 5.20527,-8.192 2.20975,-4.5056 4.4662,-8.192 5.0143,-8.192 0.54812,0 2.92196,3.6848 5.27519,8.18845 2.35322,4.50367 4.61372,8.18771 5.02332,8.1868 0.4096,-9.2e-4 2.73199,-3.68573 5.16085,-8.18847 2.42886,-4.50272 4.9496,-8.18678 5.60163,-8.18678 0.65204,0 2.99349,3.6864 5.20325,8.192 2.20975,4.5056 4.41896,8.192 4.90936,8.192 0.49039,0 3.70202,-6.30994 7.13699,-14.02209 l 6.24537,-14.02206 0,-106.89667 0,-106.89665 -32.39563,-62.24213 c -17.8176,-34.23318 -32.73076,-62.24331 -33.14036,-62.24475 -0.4096,-0.001 -15.32277,28.36657 -33.14036,63.04002 l -32.39564,63.04263 -0.0104,105.59867 -0.0104,105.59867 7.00219,15.24767 7.00221,15.24767 5.41832,-9.71452 5.41833,-9.71454 2.5539,5.63777 9.4e-4,0 z"
     id="path7227"
     inkscape:connector-curvature="0"
     transform="scale(0.28222222,0.28222222)" /></svg>