<?xml version="1.0" encoding="UTF-8"?>
<!DOCTYPE svg PUBLIC "-//W3C//DTD SVG 1.1//EN" "http://www.w3.org/Graphics/SVG/1.1/DTD/svg11.dtd">
<!-- Creator: CorelDRAW -->
<svg xmlns="http://www.w3.org/2000/svg" xml:space="preserve" width="220.9mm" height="235.4mm" style="shape-rendering:geometricPrecision; text-rendering:geometricPrecision; image-rendering:optimizeQuality; fill-rule:evenodd; clip-rule:evenodd"
viewBox="0 0 220.9 235.4"
 xmlns:xlink="http://www.w3.org/1999/xlink">
 <defs>
  <style type="text/css">
   <![CDATA[
    .fil0 {fill:#0091D2}
    .fil1 {fill:#2A1F74}
    .fil2 {fill:white}
   ]]>
  </style>
 </defs>
 <g id="Layer_x0020_1">
  <metadata id="CorelCorpID_0Corel-Layer"/>
  <g id="Layer_2" data-name="Layer 2">
   <g id="Capa_1" data-name="Capa 1">
    <path id="_306217264" class="fil0" d="M57.0635 52.3269c-22.9408,23.2631 -31.2268,57.1663 -20.2098,90.4359 1.645,5.6071 4.6553,11.6277 7.9392,16.5535 34.0398,51.7042 104.55,56.5819 145.538,15.0535 39.1469,-39.6603 38.7263,-103.78 -0.934,-142.921 -19.8422,-19.9451 -47.971,-31.4523 -76.5259,-31.4523 -28.5546,0 -56.2572,11.5072 -76.2882,31.1121 -22.7635,22.7635 -35.1567,53.0581 -35.1567,83.8116 0,31.2123 12.8522,61.9658 34.8846,83.5392 48.8858,48.2522 128.403,49.5467 176.688,1.2617l-20.3463 -18.8333c-43.5384,41.5119 -115.726,36.2082 -151.967,-16.2552 -4.4468,-6.683 -8.56,-15.2257 -10.7747,-22.8192 -10.4483,-34.7561 -1.3594,-69.7627 22.5701,-94.0089 16.3098,-16.5228 37.7649,-25.863 60.9898,-25.863 33.7121,0 86.028,24.7761 86.028,82.7398 0,51.2235 -43.2871,80.118 -76.5895,79.3752 -25.3878,-0.5462 -49.2026,-12.2952 -63.8574,-34.2856 -2.681,-4.0244 -5.1688,-9 -6.752,-13.5233 -8.6793,-26.8134 -1.95,-54.0748 16.5502,-72.8152 11.9317,-13.059 29.1432,-20.2519 46.6114,-20.2519 15.6702,0 31.0836,5.9084 42.9005,15.9271l9.4986 -10.378c-13.5647,-12.5176 -33.6898,-20.379 -53.5004,-20.379 -21.0682,0 -41.8222,8.4903 -56.6015,23.2696l-0.695 0.7069z"/>
    <path id="_170640712" class="fil1" d="M156.561 66.3754c-5.697,-5.2818 -20.5047,-16.8014 -41.4027,-16.8014 -27.4525,0 -60.3289,21.8484 -60.3289,63.9994 0,34.8099 31.2924,63.9994 67.73,63.9994 18.0185,-0.0002 36.095,-7.5545 48.7755,-20.235 28.5504,-28.5504 28.3319,-74.1644 1.3928,-103.234l-10.9777 12.0473c-0.684,0.7612 -1.6801,1.2024 -2.7048,1.2024 -0.8966,0 -1.7931,-0.3416 -2.4478,-0.9393l-0.0364 -0.0392z"/>
    <path id="_170639632" class="fil0" d="M129.152 90.6708l-24.2735 14.2015c1.5549,1.6086 2.8,3.7432 3.4523,5.8778l24.3336 -14.2015c-1.5285,-1.5044 -2.8428,-3.6551 -3.5,-5.8058l-0.0124 -0.072z"/>
    <path id="_170639896" class="fil2" d="M143.703 98.0665c6.6034,0.0001 11.9892,-5.3857 11.9892,-11.9892 0,-6.6035 -5.3858,-11.9893 -11.9893,-11.9893 -6.6035,0 -11.9893,5.3858 -11.9893,11.9893 0,0.0468 0,0.1405 0,0.1873 0,6.357 5.3042,11.7081 11.8288,11.802l0.1606 -0.0001z"/>
    <path id="_305127720" class="fil2" d="M143.452 155.479c6.453,-0.0002 11.7161,-5.2633 11.7161,-11.7164 0,-6.4531 -5.2631,-11.7162 -11.7162,-11.7162 -6.4531,0 -11.7162,5.2631 -11.7162,11.7162 0,0.0458 0,0.1373 0,0.1831 0,6.1734 5.1764,11.4415 11.5439,11.5331l0.1724 0.0002z"/>
    <path id="_305127888" class="fil0" d="M132.916 133.09l-24.3173 -14.1468c-0.5551,2.1312 -1.6788,4.3787 -3.0982,6.0939l23.8038 13.901c0.6003,-2.014 1.8911,-4.0676 3.4167,-5.6518l0.195 -0.1963z"/>
   </g>
  </g>
 </g>
</svg>
