<?xml version="1.0" encoding="utf-8"?>
<!-- Generator: Adobe Illustrator 18.0.0, SVG Export Plug-In . SVG Version: 6.00 Build 0)  -->
<!DOCTYPE svg PUBLIC "-//W3C//DTD SVG 1.1//EN" "http://www.w3.org/Graphics/SVG/1.1/DTD/svg11.dtd">
<svg version="1.1" id="Layer_1" xmlns="http://www.w3.org/2000/svg" xmlns:xlink="http://www.w3.org/1999/xlink" x="0px" y="0px"
	 viewBox="0 0 58 58" enable-background="new 0 0 58 58" xml:space="preserve">
<g>
	<g>
		<g>
			<g>
				<polygon fill="#474747" points="40.8,15.1 31.6,18 28.7,8.7 29.7,8.4 32.3,16.7 40.5,14.1 				"/>
			</g>
			<polygon fill="#474747" points="40.5,14.1 29.7,8.4 30.1,9.6 39.3,14.5 			"/>
		</g>
	</g>
	<g>
		<g>
			<circle fill="#474747" cx="19.5" cy="50.7" r="0.7"/>
		</g>
		<g>
			<circle fill="#474747" cx="18.2" cy="50.9" r="0.7"/>
		</g>
		<g>
			<circle fill="#474747" cx="16.9" cy="50.6" r="0.7"/>
		</g>
		<g>
			<circle fill="#474747" cx="15.8" cy="49.9" r="0.7"/>
		</g>
		<g>
			<circle fill="#474747" cx="15.6" cy="48.6" r="0.7"/>
		</g>
		<g>
			<circle fill="#474747" cx="16" cy="47.3" r="0.7"/>
		</g>
		<g>
			<circle fill="#474747" cx="16.2" cy="46" r="0.7"/>
		</g>
		<g>
			<circle fill="#474747" cx="17" cy="44.9" r="0.7"/>
		</g>
		<g>
			<circle fill="#474747" cx="20.7" cy="50" r="0.7"/>
		</g>
		<g>
			<circle fill="#474747" cx="21.3" cy="48.9" r="0.7"/>
		</g>
		<g>
			<circle fill="#474747" cx="22.1" cy="47.9" r="0.7"/>
		</g>
		<g>
			<circle fill="#474747" cx="22.9" cy="46.8" r="0.7"/>
		</g>
		<g>
			<circle fill="#474747" cx="23.8" cy="45.9" r="0.7"/>
		</g>
		<g>
			<g>
				<path fill="#474747" d="M25.1,44.8C25.1,44.8,25.1,44.8,25.1,44.8c0.2,0.3,0.4,0.6,0.4,0.9l22.7-7.1l-7.6-24.2l-1,0.3L47,37.9
					L25.1,44.8z"/>
				<path fill="#474747" d="M23.9,44.2c0.1,0,0.1,0,0.2,0l-9.4-30l15.1-4.8l-0.3-1l-16.1,5.1l9.7,30.9
					C23.3,44.3,23.6,44.2,23.9,44.2z"/>
			</g>
		</g>
	</g>
</g>
<path fill="none" stroke="#FFFFFF" stroke-miterlimit="10" d="M36.9,30.5"/>
<circle fill="none" stroke="#474747" stroke-width="0.5" stroke-miterlimit="10" cx="29" cy="29" r="28.8"/>
</svg>
