<?xml version="1.0" encoding="utf-8"?>
<!-- Generator: Adobe Illustrator 17.0.0, SVG Export Plug-In . SVG Version: 6.00 Build 0)  -->
<!DOCTYPE svg PUBLIC "-//W3C//DTD SVG 1.1//EN" "http://www.w3.org/Graphics/SVG/1.1/DTD/svg11.dtd">
<svg version="1.1" id="Layer_1" xmlns="http://www.w3.org/2000/svg" xmlns:xlink="http://www.w3.org/1999/xlink" x="0px" y="0px"
	 width="58.015px" height="58.015px" viewBox="0 0 58.015 58.015" enable-background="new 0 0 58.015 58.015" xml:space="preserve">
<circle fill="none" stroke="#474747" stroke-width="0.5" stroke-miterlimit="10" cx="29.008" cy="29.008" r="28.758"/>
<g>
	<path fill="#474747" d="M44.14,42.996H13.952l-0.969-20.052h32.125L44.14,42.996z M14.905,41.996h28.282l0.872-18.052H14.032
		L14.905,41.996z"/>
</g>
<g>
	<g>
		<polygon fill="#474747" points="44.127,21.6 26.336,21.6 26.336,19.39 14.839,19.39 14.969,21.6 13.969,21.6 13.808,18.39 
			27.336,18.39 27.336,20.6 44.175,20.6 		"/>
	</g>
</g>
<g>
	<polygon fill="#474747" points="42.734,19.115 28.266,19.115 28.266,17.021 16.765,17.021 16.781,17.438 15.766,17.438 
		15.628,16.021 29.266,16.021 29.266,18.115 42.809,18.115 	"/>
</g>
</svg>
