<?xml version="1.0" encoding="utf-8"?>
<!-- Generator: Adobe Illustrator 17.0.0, SVG Export Plug-In . SVG Version: 6.00 Build 0)  -->
<!DOCTYPE svg PUBLIC "-//W3C//DTD SVG 1.1//EN" "http://www.w3.org/Graphics/SVG/1.1/DTD/svg11.dtd">
<svg version="1.1" id="Layer_1" xmlns="http://www.w3.org/2000/svg" xmlns:xlink="http://www.w3.org/1999/xlink" x="0px" y="0px"
	 width="58.015px" height="58.015px" viewBox="0 0 58.015 58.015" enable-background="new 0 0 58.015 58.015" xml:space="preserve">
<circle fill="none" stroke="#474747" stroke-width="0.5" stroke-miterlimit="10" cx="29.008" cy="29.008" r="28.758"/>
<g>
	<g>
		<polygon fill="#474747" points="32.927,18.375 32.927,18.405 32.927,20.025 32.927,21.435 32.927,21.885 33.378,21.885 
			34.128,21.885 34.128,21.226 34.128,18.056 33.797,17.546 33.237,16.685 29.008,10.215 24.737,16.765 24.177,17.616 
			23.888,18.056 23.888,21.106 23.888,21.885 24.518,21.885 25.018,21.885 25.018,21.385 25.018,19.976 25.018,18.755 
			25.128,18.575 25.667,17.695 28.898,12.366 32.378,17.546 		"/>
	</g>
	<g>
		<path fill="#474747" d="M29.008,30.135c0.62,0,1.13-0.51,1.13-1.13s-0.51-1.12-1.13-1.12s-1.12,0.5-1.12,1.12
			S28.388,30.135,29.008,30.135z"/>
	</g>
	<g>
		<polygon fill="#474747" points="34.068,40.056 34.128,39.955 34.128,36.775 34.128,36.135 33.348,36.135 32.927,36.135 
			32.927,36.556 32.927,37.976 32.927,38.916 32.927,39.445 32.598,39.996 29.047,45.835 25.617,40.726 25.058,39.875 
			25.018,39.825 25.018,38.035 25.018,36.616 25.018,36.135 24.537,36.135 23.888,36.135 23.888,36.905 23.888,39.955 
			24.318,40.616 24.878,41.465 29.008,47.796 33.508,40.905 		"/>
	</g>
	<g>
		<rect x="3.132" y="28.508" fill="#474747" width="4.25" height="1"/>
	</g>
	<g>
		<rect x="28.315" y="3.19" fill="#474747" width="1" height="4.25"/>
	</g>
	<g>
		<rect x="50.382" y="28.373" fill="#474747" width="4.25" height="1"/>
	</g>
	<g>
		<rect x="28.449" y="50.44" fill="#474747" width="1" height="4.25"/>
	</g>
</g>
<g>
	<g>
		
			<rect x="45.84" y="10.393" transform="matrix(0.7071 0.7071 -0.7071 0.7071 21.625 -29.4316)" fill="#474747" width="1" height="1.99"/>
	</g>
</g>
<g>
	<g>
		
			<rect x="45.632" y="45.839" transform="matrix(0.7071 0.7071 -0.7071 0.7071 46.4233 -19.3977)" fill="#474747" width="1.99" height="1"/>
	</g>
</g>
<g>
	<g>
		
			<rect x="11.176" y="45.632" transform="matrix(0.7071 0.7071 -0.7071 0.7071 36.3901 5.4009)" fill="#474747" width="1" height="1.99"/>
	</g>
</g>
<g>
	<g>
		
			<rect x="10.393" y="11.176" transform="matrix(0.7071 0.7071 -0.7071 0.7071 11.5918 -4.633)" fill="#474747" width="1.99" height="1"/>
	</g>
</g>
</svg>
