<?xml version="1.0" encoding="utf-8"?>
<!-- Generator: Adobe Illustrator 17.0.0, SVG Export Plug-In . SVG Version: 6.00 Build 0)  -->
<!DOCTYPE svg PUBLIC "-//W3C//DTD SVG 1.1//EN" "http://www.w3.org/Graphics/SVG/1.1/DTD/svg11.dtd">
<svg version="1.1" id="Layer_1" xmlns="http://www.w3.org/2000/svg" xmlns:xlink="http://www.w3.org/1999/xlink" x="0px" y="0px"
	 width="58.015px" height="58.015px" viewBox="0 0 58.015 58.015" enable-background="new 0 0 58.015 58.015" xml:space="preserve">
<g>
	<g>
		<g>
			<path fill="#474747" d="M14.77,13.686l11.246,3.159l21.019,21.531l-8.359,8.16L17.657,25.005L14.77,13.686 M13.373,12.255
				l3.381,13.257L38.659,47.95l9.79-9.557L26.545,15.955L13.373,12.255L13.373,12.255z"/>
		</g>
	</g>
	<polygon fill="#474747" points="34.452,45.275 30.684,47.562 20.327,30.452 17.161,27.106 30.345,48.935 35.161,46.026 	"/>
	<polygon fill="#474747" points="25.894,43.363 22.604,44.224 19.679,32.769 17.758,29.444 21.883,45.44 26.431,44.28 	"/>
	<circle fill="#474747" cx="17.87" cy="16.788" r="0.765"/>
	<circle fill="none" stroke="#474747" stroke-width="0.5" stroke-miterlimit="10" cx="29.008" cy="29.008" r="28.758"/>
</g>
</svg>
